<svg width="195" height="83" viewBox="0 0 195 83" fill="none" xmlns="http://www.w3.org/2000/svg">
<path d="M163.543 16.6765C163.388 17.5037 163.404 18.5716 163.774 19.835C164.145 21.0985 164.238 24.8737 164.238 26.6034V33.1462C164.161 35.0263 164.345 38.7171 164.47 39.689C164.701 41.4939 164.47 42.3963 164.47 42.8476C164.47 43.2988 164.47 43.9756 164.933 44.2012C165.397 44.4268 165.628 44.6525 168.178 44.6525C170.727 44.6525 172.142 43.2159 172.581 43.0732C173.277 42.8476 174.667 42.3963 177.449 42.6219C180.23 42.8476 183.243 43.2988 184.17 43.5244C185.097 43.75 186.256 44.2012 187.415 44.4268C188.573 44.6525 189.964 44.6525 190.891 44.6525C191.818 44.6525 193.44 44.4268 193.672 43.75C193.904 43.0732 194.136 42.3963 193.904 41.9451C193.672 41.4939 193.44 41.0427 192.282 40.817C191.96 40.7545 190.568 40.3658 188.573 40.3658C187.646 40.3658 186.256 39.9146 184.633 39.689C183.945 39.5933 180.925 39.0121 179.071 39.0121C177.217 39.0121 173.74 38.5609 170.032 39.4634C169.476 39.6439 168.719 39.689 168.41 39.689C168.487 38.4105 168.178 35.5656 168.178 35.0241C168.178 34.3473 168.41 27.1683 168.178 25.8146L168.41 18.14C168.41 16.1095 167.946 14.1947 167.946 13.9691C167.946 13.7435 167.483 12.841 166.556 12.1642C166.37 12.0288 165.628 11.713 164.933 12.1642C164.377 12.5252 163.929 14.2699 163.774 15.0972L163.543 16.6765Z" fill="#D4DCCD"/>
<path d="M168.178 25.8146C168.41 27.1683 168.178 34.3473 168.178 35.0241C168.178 35.5656 168.487 38.4105 168.41 39.689C168.719 39.689 169.476 39.6439 170.032 39.4634C173.74 38.5609 177.217 39.0121 179.071 39.0121C180.925 39.0121 183.945 39.5933 184.633 39.689C186.256 39.9146 187.646 40.3658 188.573 40.3658C190.568 40.3658 191.96 40.7545 192.282 40.817C193.44 41.0427 193.672 41.4939 193.904 41.9451C194.136 42.3963 193.904 43.0732 193.672 43.75C193.44 44.4268 191.818 44.6525 190.891 44.6525C189.964 44.6525 188.573 44.6525 187.415 44.4268C186.256 44.2012 185.097 43.75 184.17 43.5244C183.243 43.2988 180.23 42.8476 177.449 42.6219C174.667 42.3963 173.277 42.8476 172.581 43.0732C172.142 43.2159 170.727 44.6525 168.178 44.6525C165.628 44.6525 165.397 44.4268 164.933 44.2012C164.47 43.9756 164.47 43.2988 164.47 42.8476C164.47 42.3963 164.701 41.4939 164.47 39.689C164.345 38.7171 164.161 35.0263 164.238 33.1462V26.6034C164.238 24.8737 164.145 21.0985 163.774 19.835C163.404 18.5716 163.388 17.5037 163.543 16.6765L163.774 15.0972C163.929 14.2699 164.377 12.5252 164.933 12.1642C165.628 11.713 166.37 12.0288 166.556 12.1642C167.483 12.841 167.946 13.7435 167.946 13.9691C167.946 14.1947 168.41 16.1095 168.41 18.14M168.178 25.8146C168.178 24.2353 168.41 20.1705 168.41 18.14M168.178 25.8146L168.41 18.14" stroke="#D4DCCD"/>
<path d="M79.7391 34.8502C79.2755 32.3684 79.3528 28.2322 79.5073 25.8256C79.6022 24.3474 79.4576 23.3993 79.4113 23.2192C79.1795 22.3168 78.4842 21.8655 77.5572 22.3168C76.6301 22.768 76.5082 24.1385 76.2626 26.0513C76.0308 27.8562 75.799 28.7586 76.0308 32.1428C76.2074 34.7213 75.8388 37.5339 76.8619 39.6891C77.0169 40.0157 78.6641 43.359 80.2026 44.5515C81.4972 45.555 84.2784 46.3259 87.1556 45.6796C88.1599 45.454 90.556 44.5632 91.9267 42.8476C93.5491 40.8171 93.5491 37.2073 93.7808 36.0792C93.9662 35.1768 93.943 31.7919 93.7808 30.2133C93.5491 27.9572 93.1815 25.6 92.718 24.6976C92.5107 24.294 92.3902 23.4449 90.9996 23.4449C89.609 23.4449 89.9368 25.1488 89.9368 25.6C89.9368 26.0513 90.3067 29.5523 90.5361 31.1158C90.7679 32.695 90.5557 35.4293 90.3043 36.5305C89.3773 40.5915 88.5462 41.1673 87.6191 41.3929C86.6921 41.6186 84.7716 42.1414 82.5203 41.1673C80.4344 40.2649 80.1856 37.2409 79.7391 34.8502Z" fill="#D4DCCD"/>
<path fill-rule="evenodd" clip-rule="evenodd" d="M109.663 36.314C109.605 36.3286 109.563 36.3266 109.541 36.3049C109.51 36.2749 109.557 36.2807 109.663 36.314Z" fill="#D4DCCD"/>
<path fill-rule="evenodd" clip-rule="evenodd" d="M112.571 20.9773C112.09 20.5119 110.805 19.968 105.833 19.6094C101.3 19.2826 97.2573 20.1181 96.7938 20.2863C96.6166 20.3506 95.8667 20.5119 93.7808 21.64C91.6949 22.768 93.3173 23.2193 93.0855 23.4449C92.9001 23.6253 94.0899 24.3473 94.7079 24.7986C95.4032 25.2498 95.6813 24.7534 95.8667 24.5729C96.0985 24.3473 95.8667 24.472 95.8667 24.1217C96.0985 24.1217 96.562 24.1217 96.7938 23.8961C96.9792 23.7156 98.1844 23.3697 98.6479 23.4449C98.8797 29.5364 100.039 33.6727 100.27 34.7255C100.27 34.8007 100.286 34.8986 99.575 34.7255C98.6479 34.4999 97.2573 34.9511 97.0256 34.7255C96.7938 34.4999 96.562 34.2743 96.3303 35.628C96.0985 36.9817 96.562 36.9817 96.562 37.4329C96.562 37.7939 97.1801 38.1097 97.4891 38.1097L101.429 38.3353L101.661 38.5609C101.661 39.2378 102.356 40.9418 102.588 42.622C102.831 44.3838 102.588 45.1037 103.979 45.1037C104.906 45.1037 105.137 45.1037 105.601 44.8781C106.016 44.6763 106.296 43.5244 106.296 43.0732C106.296 42.7122 105.91 41.2267 105.833 40.5915C105.755 39.7759 105.925 38.9143 105.369 38.7866C106.064 38.937 107.438 39.3827 107.687 39.4634C109.077 39.9146 109.386 40.1402 110.236 40.3659C111.134 40.7834 113.317 41.2327 113.945 41.4939C114.64 41.7833 118.348 43.2988 119.507 43.5244C120.666 43.75 120.666 43.5244 121.129 43.0732C121.5 42.7122 121.207 41.9451 121.129 41.4939C121.129 41.0427 120.898 40.8171 119.97 40.3659C119.091 39.9378 118.116 39.2378 117.189 39.0122C116.262 38.7866 114.64 38.1097 113.945 37.8841C113.342 37.6885 110.356 36.5308 109.663 36.314C109.605 36.3286 109.563 36.3266 109.541 36.3049C109.51 36.2749 109.557 36.2807 109.663 36.314C110.207 36.1772 112.048 34.773 112.786 34.2743C114.64 33.0216 114.872 32.695 115.567 31.7925C116.262 30.8901 116.262 29.5364 116.262 27.9571C116.262 26.3778 115.567 25.1488 114.872 23.6705C114.408 22.5424 113.172 21.4896 112.554 20.9631L112.571 20.9773ZM103.051 30.4389L102.356 26.6035L101.893 23.4449C102.124 23.2193 102.124 23.4449 103.979 23.4449C104.442 23.4449 108.15 23.4449 109.077 23.6705C110.004 23.8961 111.395 24.5729 111.859 25.4754C112.09 25.9266 112.554 26.6035 112.554 28.8596C112.554 31.1157 108.846 32.695 108.382 32.9206C108.011 33.1011 106.528 33.5975 105.833 33.8231C105.524 33.8983 104.813 33.9584 104.442 33.5975C104.071 33.2365 103.361 31.7173 103.051 30.4389Z" fill="#D4DCCD"/>
<path d="M120.666 20.7375C121.825 21.8656 122.01 22.0912 122.752 22.9936C123.679 24.1217 129.009 31.3413 129.936 32.4694C130.863 33.1462 135.035 37.8841 135.962 38.7866L136.658 39.0122L136.426 35.8536L135.962 32.0182C135.267 29.3108 134.34 24.1217 133.876 22.768C133.506 21.3241 132.949 20.5119 132.718 20.2863H132.254C132.1 20.2863 131.791 20.196 131.791 19.8351C131.791 19.3838 131.095 18.9326 131.559 17.1277C131.93 15.6838 134.031 16.2253 135.035 16.6765C135.344 16.7517 136.055 17.3984 136.426 19.3838C136.889 21.8656 138.319 22.6856 139.207 29.3108C139.902 34.4999 139.902 36.5304 140.134 38.7865L140.598 43.0732C140.598 43.2988 140.459 43.8403 139.902 44.2013C139.207 44.6525 137.585 45.3293 137.121 44.8781C136.658 44.4269 136.426 45.1038 134.34 42.622L134.338 42.6199C132.252 40.1374 129.009 35.8536 128.082 34.7255C127.793 34.3732 125.301 31.567 125.069 31.3413L122.983 29.3108C122.752 30.4389 124.142 28.8596 124.142 29.762C124.142 30.9124 124.838 35.4023 125.301 36.9816L126.228 40.3658C126.46 40.8171 126.46 40.8171 126.923 41.3929C126.987 41.4724 127.387 41.9451 127.851 42.3964C128.221 42.7574 128.082 43.6748 128.082 43.9756C128.005 44.5021 127.619 45.1037 127.155 45.3293C126.692 45.5549 126.228 45.5549 125.533 45.5549C125.015 45.5549 124.142 45.5549 123.679 44.4269C123.215 43.2988 122.585 40.3613 122.52 39.9146C121.825 35.1767 121.361 33.8231 120.898 31.7925C120.69 30.8845 120.434 29.3108 120.202 28.4083C120.017 27.6864 119.507 25.2498 119.043 24.1217C118.866 23.691 119.043 23.8961 118.58 22.9936C118.165 22.1865 116.864 21.2797 118.348 19.8351C119.043 19.1582 119.97 20.0607 120.666 20.7375Z" fill="#D4DCCD"/>
<path d="M93.7808 21.64C91.6949 22.768 93.3173 23.2193 93.0855 23.4449C92.9001 23.6253 94.0899 24.3473 94.7079 24.7986C95.4032 25.2498 95.6813 24.7534 95.8667 24.5729C96.0985 24.3473 95.8667 24.472 95.8667 24.1217C96.0985 24.1217 96.562 24.1217 96.7938 23.8961C96.9792 23.7156 98.1844 23.3697 98.6479 23.4449C98.8797 29.5364 100.039 33.6727 100.27 34.7255C100.27 34.8007 100.286 34.8986 99.575 34.7255C98.6479 34.4999 97.2573 34.9511 97.0256 34.7255C96.7938 34.4999 96.562 34.2743 96.3303 35.628C96.0985 36.9817 96.562 36.9817 96.562 37.4329C96.562 37.7939 97.1801 38.1097 97.4891 38.1097L101.429 38.3353L101.661 38.5609C101.661 39.2378 102.356 40.9418 102.588 42.622C102.831 44.3838 102.588 45.1037 103.979 45.1037C104.906 45.1037 105.137 45.1037 105.601 44.8781C106.016 44.6763 106.296 43.5244 106.296 43.0732C106.296 42.7122 105.91 41.2267 105.833 40.5915C105.755 39.7759 105.925 38.9143 105.369 38.7866C106.064 38.937 107.438 39.3827 107.687 39.4634C109.077 39.9146 109.386 40.1402 110.236 40.3659C111.134 40.7834 113.317 41.2327 113.945 41.4939C114.64 41.7833 118.348 43.2988 119.507 43.5244C120.666 43.75 120.666 43.5244 121.129 43.0732C121.5 42.7122 121.207 41.9451 121.129 41.4939C121.129 41.0427 120.898 40.8171 119.97 40.3659C119.091 39.9378 118.116 39.2378 117.189 39.0122C116.262 38.7866 114.64 38.1097 113.945 37.8841C113.342 37.6885 110.356 36.5308 109.663 36.314M93.7808 21.64C95.8667 20.5119 96.6166 20.3506 96.7938 20.2863M93.7808 21.64C95.4496 20.7375 97.2573 20.2863 96.7938 20.2863M112.554 20.9631C113.172 21.4896 114.408 22.5424 114.872 23.6705C115.567 25.1488 116.262 26.3778 116.262 27.9571C116.262 29.5364 116.262 30.8901 115.567 31.7925C114.872 32.695 114.64 33.0216 112.786 34.2743C112.048 34.773 110.207 36.1772 109.663 36.314M112.554 20.9631L112.571 20.9773M112.554 20.9631C112.554 20.9631 113.017 21.64 112.571 20.9773M96.7938 20.2863C97.2573 20.1181 101.3 19.2826 105.833 19.6094C110.805 19.968 112.09 20.5119 112.571 20.9773M109.663 36.314C109.605 36.3286 109.563 36.3266 109.541 36.3049C109.51 36.2749 109.557 36.2807 109.663 36.314ZM135.962 38.7866C135.035 37.8841 130.863 33.1462 129.936 32.4694C129.009 31.3413 123.679 24.1217 122.752 22.9936C122.01 22.0912 121.825 21.8656 120.666 20.7375C119.97 20.0607 119.043 19.1582 118.348 19.8351C116.864 21.2797 118.165 22.1865 118.58 22.9936C119.043 23.8961 118.866 23.691 119.043 24.1217C119.507 25.2498 120.017 27.6864 120.202 28.4083C120.434 29.3108 120.69 30.8845 120.898 31.7925C121.361 33.8231 121.825 35.1767 122.52 39.9146C122.585 40.3613 123.215 43.2988 123.679 44.4269C124.142 45.5549 125.015 45.5549 125.533 45.5549C126.228 45.5549 126.692 45.5549 127.155 45.3293C127.619 45.1037 128.005 44.5021 128.082 43.9756C128.082 43.6748 128.221 42.7574 127.851 42.3964C127.387 41.9451 126.987 41.4724 126.923 41.3929C126.46 40.8171 126.46 40.8171 126.228 40.3658L125.301 36.9816C124.838 35.4023 124.142 30.9124 124.142 29.762C124.142 28.8596 122.752 30.4389 122.983 29.3108M135.962 38.7866C136.704 39.5085 136.58 38.937 136.658 39.0122M135.962 38.7866L136.658 39.0122M136.658 39.0122L136.426 35.8536L135.962 32.0182C135.267 29.3108 134.34 24.1217 133.876 22.768C133.506 21.3241 132.949 20.5119 132.718 20.2863H132.254C132.1 20.2863 131.791 20.196 131.791 19.8351C131.791 19.3838 131.095 18.9326 131.559 17.1277C131.93 15.6838 134.031 16.2253 135.035 16.6765C135.344 16.7517 136.055 17.3984 136.426 19.3838C136.889 21.8656 138.319 22.6856 139.207 29.3108C139.902 34.4999 139.902 36.5304 140.134 38.7865L140.598 43.0732C140.598 43.2988 140.459 43.8403 139.902 44.2013C139.207 44.6525 137.585 45.3293 137.121 44.8781C136.658 44.4269 136.426 45.1038 134.34 42.622M134.34 42.622L134.338 42.6199M134.34 42.622C134.339 42.6213 134.339 42.6206 134.338 42.6199M125.069 31.3413C125.301 31.567 127.793 34.3732 128.082 34.7255C129.009 35.8536 132.252 40.1374 134.338 42.6199M125.069 31.3413C124.884 31.1608 123.292 29.6116 122.983 29.3108M125.069 31.3413L122.983 29.3108M79.5073 25.8256C79.3528 28.2322 79.2755 32.3684 79.7391 34.8502C80.1856 37.2409 80.4344 40.2649 82.5203 41.1673C84.7716 42.1414 86.6921 41.6186 87.6191 41.3929C88.5462 41.1673 89.3773 40.5915 90.3043 36.5305C90.5557 35.4293 90.7679 32.695 90.5361 31.1158C90.3067 29.5523 89.9368 26.0513 89.9368 25.6C89.9368 25.1488 89.609 23.4449 90.9996 23.4449C92.3902 23.4449 92.5107 24.294 92.718 24.6976C93.1815 25.6 93.5491 27.9572 93.7808 30.2133C93.943 31.7919 93.9662 35.1768 93.7808 36.0792C93.5491 37.2073 93.5491 40.8171 91.9267 42.8476C90.556 44.5632 88.1599 45.454 87.1556 45.6796C84.2784 46.3259 81.4972 45.555 80.2026 44.5515C78.6641 43.359 77.0169 40.0157 76.8619 39.6891C75.8388 37.5339 76.2074 34.7213 76.0308 32.1428C75.799 28.7586 76.0308 27.8562 76.2626 26.0513C76.5082 24.1385 76.6301 22.768 77.5572 22.3168C78.4842 21.8655 79.1795 22.3168 79.4113 23.2192C79.4576 23.3993 79.6022 24.3474 79.5073 25.8256ZM101.893 23.4449C102.124 23.2193 102.124 23.4449 103.979 23.4449C104.442 23.4449 108.15 23.4449 109.077 23.6705C110.004 23.8961 111.395 24.5729 111.859 25.4754C112.09 25.9266 112.554 26.6035 112.554 28.8596C112.554 31.1157 108.846 32.695 108.382 32.9206C108.011 33.1011 106.528 33.5975 105.833 33.8231C105.524 33.8983 104.813 33.9584 104.442 33.5975C104.071 33.2365 103.361 31.7173 103.051 30.4389L102.356 26.6035L101.893 23.4449Z" stroke="#D4DCCD"/>
<path fill-rule="evenodd" clip-rule="evenodd" d="M55.7581 23.4688C54.9967 24.3542 53.4282 27.1431 53.2455 31.2158C53.0628 35.2885 53.9682 37.343 54.616 38.5201C55.2251 39.6268 57.2047 43.6109 62.1537 46.4883C64.8947 48.082 67.7118 47.595 68.7777 47.1524C69.6914 46.7835 71.7928 45.4259 72.8892 42.9469C74.2597 39.8481 74.7165 34.9786 74.4881 31.6585C74.2597 28.3383 73.346 25.2395 70.605 21.2554C68.4123 18.0681 63.2958 18.5993 61.6969 19.042C59.584 19.627 57.7681 21.1669 55.7581 23.4688ZM57.1286 28.3383C57.5854 26.1249 58.6513 25.1658 59.4127 24.5755C60.5548 23.6902 61.24 23.2475 62.1537 22.8048C62.8903 22.4479 66.4936 21.6981 68.3209 23.4688C69.9198 25.2395 70.2913 28.6023 70.605 29.6664C71.0619 31.2158 71.0619 35.1999 70.605 37.6347C70.2396 39.5825 70.1482 42.2829 66.9504 43.3896C65.1231 43.8322 59.1843 41.8402 57.8138 37.4134C56.2149 34.5359 56.6717 31.4371 57.1286 28.3383Z" fill="#D4DCCD" stroke="#D4DCCD"/>
<path d="M8.95426 5.39583C23.4165 6.47877 35.3757 8.55441 39.5475 9.45686L42.7922 18.707C43.642 21.8656 45.6197 30.1681 46.7322 38.1097C48.1228 48.0367 46.9294 57.3023 46.4641 59.8387C45.1501 67.0017 43.0477 71.726 33.7533 76.0127C31.1266 76.7647 25.1779 78.0432 18.2249 74.8846C9.57565 70.9555 10.4063 69.88 8.55217 68.5263C7.76553 67.952 6.08273 66.5659 6.31449 64.9866C6.47838 63.8699 9.64956 63.3784 10.5766 63.1527C13.0275 63.1527 13.8214 62.4759 14.2849 62.0247C14.6557 61.6637 14.0531 59.5429 13.5896 59.0917C13.4351 58.8661 12.199 58.6405 10.8084 58.8661C7.10013 59.7685 5.70953 59.9942 3.85539 60.8966C2.00126 62.0247 1.15145 63.0775 1.07419 63.8296C0.765171 64.5064 1.25961 67.0333 5.70953 71.726C11.2719 77.592 15.7167 79.2811 17.7614 80.0737C20.6027 81.1751 23.8634 82.0951 29.1179 81.653C33.7401 81.2641 37.7917 79.9913 42.5221 76.4671C49.3549 70.526 50.497 64.8473 50.9317 61.8853C51.3952 58.7267 51.7511 55.1717 51.9828 50.885C52.2146 45.4703 52.0628 40.1402 49.2816 26.1522C47.0567 14.9618 45.4189 10.3593 44.8781 9.45686C57.1617 10.1337 58.0888 10.8105 60.1747 11.0361C66.6641 12.2996 70.6042 12.465 71.763 12.3898C72.5356 12.2394 73.988 11.6227 73.6171 10.3593C73.1536 8.78002 71.763 8.32879 71.2995 8.32879C54.6123 5.84705 56.4538 6.20714 51.3675 5.84705C38.6204 4.94459 35.8392 4.26774 29.8133 3.59092C10.5766 0.206721 9.41779 1.10918 8.25896 1.10918C7.10012 1.10918 6.40483 1.56041 5.70953 2.01164C3.85539 3.45556 4.93697 4.41818 5.70953 4.71899C6.0958 4.8694 7.28554 5.21534 8.95426 5.39583Z" fill="#D4DCCD"/>
<path fill-rule="evenodd" clip-rule="evenodd" d="M147.087 21.4143L146.855 24.7985L146.392 31.1157L145.928 34.7255H144.538C143.92 34.7255 142.637 34.7706 142.452 34.9511C142.22 35.1767 140.829 35.1767 141.757 36.756C142.498 38.0195 143.456 38.1849 143.842 38.1097H145.928L145.233 43.2988C145.156 43.6748 145.094 44.6074 145.465 45.3293C145.836 46.0513 146.16 46.1566 146.392 46.2318C146.855 46.3822 148.061 46.7281 148.246 46.0062C148.617 45.2842 148.864 44.0508 148.941 43.5244C149.019 42.8476 149.173 41.4488 149.173 41.2683C149.173 41.0878 149.328 39.3882 149.405 38.5609H152.186L152.418 40.8171C152.418 40.9675 152.603 41.5841 153.345 42.8476C154.272 44.4269 154.735 45.3293 154.967 45.5549C155.153 45.7354 155.817 46.5326 156.126 46.9086C156.358 47.2094 156.868 47.8111 157.053 47.8111C157.285 47.8111 157.517 48.2623 158.444 47.8111C159.185 47.4501 159.371 46.9086 159.371 46.683C159.448 46.3822 159.463 45.5098 158.907 44.4269C158.351 43.3439 157.517 42.0955 157.285 41.4939L156.821 39.689L156.59 38.3353L160.066 38.1097C160.993 38.1097 161.735 37.839 161.92 37.6585C162.152 37.4329 162.616 36.9816 162.616 36.3048C162.616 35.628 163.079 36.3048 162.616 34.9511C161.688 34.0487 161.92 33.8231 160.761 33.8231H158.675L156.59 34.0487H155.663H154.967C154.581 31.4917 153.02 25.2046 152.65 23.2192C152.279 21.2338 151.336 17.4285 150.795 15.774C150.564 15.0972 150.332 13.9691 149.868 13.7435C149.454 13.5417 148.941 13.2923 148.246 13.7435C147.591 14.1683 147.396 15.2476 147.319 15.5484L147.087 21.4143ZM149.637 33.1462L150.1 29.5364L151.491 34.2743H150.564L149.405 34.4999L149.637 33.1462Z" fill="#D4DCCD"/>
<path d="M160.761 33.8231C161.92 33.8231 161.688 34.0487 162.616 34.9511C163.079 36.3048 162.616 35.628 162.616 36.3048C162.616 36.9816 162.152 37.4329 161.92 37.6585C161.735 37.839 160.993 38.1097 160.066 38.1097L156.59 38.3353L156.821 39.689L157.285 41.4939C157.517 42.0955 158.351 43.3439 158.907 44.4269C159.463 45.5098 159.448 46.3822 159.371 46.683C159.371 46.9086 159.185 47.4501 158.444 47.8111C157.517 48.2623 157.285 47.8111 157.053 47.8111C156.868 47.8111 156.358 47.2094 156.126 46.9086C155.817 46.5326 155.153 45.7354 154.967 45.5549C154.735 45.3293 154.272 44.4269 153.345 42.8476C152.603 41.5841 152.418 40.9675 152.418 40.8171L152.186 38.5609H149.405C149.328 39.3882 149.173 41.0878 149.173 41.2683C149.173 41.4488 149.019 42.8476 148.941 43.5244C148.864 44.0508 148.617 45.2842 148.246 46.0062C148.061 46.7281 146.855 46.3822 146.392 46.2318C146.16 46.1566 145.836 46.0513 145.465 45.3293C145.094 44.6074 145.156 43.6748 145.233 43.2988L145.928 38.1097H143.842C143.456 38.1849 142.498 38.0195 141.757 36.756C140.829 35.1767 142.22 35.1767 142.452 34.9511C142.637 34.7706 143.92 34.7255 144.538 34.7255H145.928L146.392 31.1157L146.855 24.7985L147.087 21.4143L147.319 15.5484C147.396 15.2476 147.591 14.1683 148.246 13.7435C148.941 13.2923 149.454 13.5417 149.868 13.7435C150.332 13.9691 150.564 15.0972 150.795 15.774C151.336 17.4285 152.279 21.2338 152.65 23.2192C153.02 25.2046 154.581 31.4917 154.967 34.0487H155.663H156.59L158.675 33.8231M160.761 33.8231C159.082 33.8231 158.83 33.8231 158.675 33.8231M160.761 33.8231H158.675M39.5475 9.45686C35.3757 8.55441 23.4165 6.47877 8.95426 5.39583C7.28554 5.21534 6.0958 4.8694 5.70953 4.71899C4.93697 4.41818 3.85539 3.45556 5.70953 2.01164C6.40483 1.56041 7.10012 1.10918 8.25896 1.10918C9.41779 1.10918 10.5766 0.206721 29.8133 3.59092C35.8392 4.26774 38.6204 4.94459 51.3675 5.84705C56.4538 6.20714 54.6123 5.84705 71.2995 8.32879C71.763 8.32879 73.1536 8.78002 73.6171 10.3593C73.988 11.6227 72.5356 12.2394 71.763 12.3898C70.6042 12.465 66.6641 12.2996 60.1747 11.0361C58.0888 10.8105 57.1617 10.1337 44.8781 9.45686C45.4189 10.3593 47.0567 14.9618 49.2816 26.1522C52.0628 40.1402 52.2146 45.4703 51.9828 50.885C51.7511 55.1717 51.3952 58.7267 50.9317 61.8853C50.497 64.8473 49.3549 70.526 42.5221 76.4671C37.7917 79.9913 33.7401 81.2641 29.1179 81.653C23.8634 82.0951 20.6027 81.1751 17.7614 80.0737C15.7167 79.2811 11.2719 77.592 5.70953 71.726C1.25961 67.0333 0.765171 64.5064 1.07419 63.8296C1.15145 63.0775 2.00126 62.0247 3.85539 60.8966C5.70953 59.9942 7.10013 59.7685 10.8084 58.8661C12.199 58.6405 13.4351 58.8661 13.5896 59.0917C14.0531 59.5429 14.6557 61.6637 14.2849 62.0247C13.8214 62.4759 13.0275 63.1527 10.5766 63.1527C9.64956 63.3784 6.47838 63.8699 6.31449 64.9866C6.08273 66.5659 7.76553 67.952 8.55217 68.5263C10.4063 69.88 9.57565 70.9555 18.2249 74.8846C25.1779 78.0432 31.1266 76.7647 33.7533 76.0127C43.0477 71.726 45.1501 67.0017 46.4641 59.8387C46.9294 57.3023 48.1228 48.0367 46.7322 38.1097C45.6197 30.1681 43.642 21.8656 42.7922 18.707L39.5475 9.45686ZM150.1 29.5364L149.637 33.1462L149.405 34.4999L150.564 34.2743H151.491L150.1 29.5364Z" stroke="#D4DCCD"/>
</svg>
