<svg width="353" height="153" viewBox="0 0 353 153" fill="none" xmlns="http://www.w3.org/2000/svg">
<path d="M296.82 30.3086C296.539 31.8552 296.567 33.8517 297.242 36.2139C297.916 38.576 298.085 45.6341 298.085 48.868V61.1003C297.945 64.6153 298.28 71.5156 298.507 73.3326C298.929 76.707 298.507 78.3942 298.507 79.2379C298.507 80.0815 298.507 81.3469 299.351 81.7687C300.194 82.1905 300.616 82.6123 305.256 82.6123C309.896 82.6123 312.47 79.9264 313.27 79.6597C314.535 79.2379 317.066 78.3942 322.128 78.816C327.19 79.2379 332.673 80.0815 334.36 80.5033C336.047 80.9251 338.157 81.7687 340.266 82.1905C342.375 82.6123 344.905 82.6123 346.593 82.6123C348.28 82.6123 351.232 82.1905 351.654 80.9251C352.076 79.6597 352.498 78.3942 352.076 77.5506C351.654 76.707 351.232 75.8634 349.123 75.4416C348.538 75.3246 346.004 74.598 342.375 74.598C340.687 74.598 338.157 73.7544 335.204 73.3326C333.951 73.1536 328.455 72.0672 325.081 72.0672C321.706 72.0672 315.379 71.2236 308.63 72.9108C307.618 73.2482 306.24 73.3326 305.678 73.3326C305.818 70.9424 305.256 65.6236 305.256 64.6112C305.256 63.3458 305.678 49.924 305.256 47.3932L305.678 33.0448C305.678 29.2485 304.834 25.6687 304.834 25.2469C304.834 24.8251 303.99 23.1379 302.303 21.8725C301.966 21.6194 300.616 21.0289 299.351 21.8725C298.338 22.5474 297.523 25.8093 297.242 27.356L296.82 30.3086Z" fill="#DDDAD0"/>
<path d="M305.256 47.3932C305.678 49.924 305.256 63.3458 305.256 64.6112C305.256 65.6236 305.818 70.9424 305.678 73.3326C306.24 73.3326 307.618 73.2482 308.63 72.9108C315.379 71.2236 321.706 72.0672 325.081 72.0672C328.455 72.0672 333.951 73.1536 335.204 73.3326C338.157 73.7544 340.687 74.598 342.375 74.598C346.004 74.598 348.538 75.3246 349.123 75.4416C351.232 75.8634 351.654 76.707 352.076 77.5506C352.498 78.3942 352.076 79.6597 351.654 80.9251C351.232 82.1905 348.28 82.6123 346.593 82.6123C344.905 82.6123 342.375 82.6123 340.266 82.1905C338.157 81.7687 336.047 80.9251 334.36 80.5033C332.673 80.0815 327.19 79.2379 322.128 78.816C317.066 78.3942 314.535 79.2379 313.27 79.6597C312.47 79.9264 309.896 82.6123 305.256 82.6123C300.616 82.6123 300.194 82.1905 299.351 81.7687C298.507 81.3469 298.507 80.0815 298.507 79.2379C298.507 78.3942 298.929 76.707 298.507 73.3326C298.28 71.5156 297.945 64.6153 298.085 61.1003V48.868C298.085 45.6341 297.916 38.576 297.242 36.2139C296.567 33.8517 296.539 31.8552 296.82 30.3086L297.242 27.356C297.523 25.8093 298.338 22.5474 299.351 21.8725C300.616 21.0289 301.966 21.6194 302.303 21.8725C303.99 23.1379 304.834 24.8251 304.834 25.2469C304.834 25.6687 305.678 29.2485 305.678 33.0448M305.256 47.3932C305.256 44.4405 305.678 36.841 305.678 33.0448M305.256 47.3932L305.678 33.0448" stroke="#DDDAD0"/>
<path d="M144.301 64.286C143.458 59.6461 143.598 51.913 143.88 47.4138C144.052 44.65 143.789 42.8776 143.705 42.5409C143.283 40.8537 142.018 40.01 140.33 40.8537C138.643 41.6973 138.421 44.2596 137.974 47.8356C137.552 51.21 137.131 52.8973 137.552 59.2243C137.874 64.0451 137.203 69.3035 139.065 73.3327C139.347 73.9434 142.345 80.1941 145.145 82.4235C147.501 84.2996 152.563 85.741 157.799 84.5326C159.627 84.1108 163.988 82.4454 166.482 79.238C169.435 75.4417 169.435 68.6929 169.857 66.5839C170.194 64.8966 170.152 58.5682 169.857 55.617C169.435 51.3989 168.766 46.992 167.922 45.3048C167.545 44.5503 167.326 42.9628 164.795 42.9628C162.264 42.9628 162.861 46.1484 162.861 46.992C162.861 47.8356 163.534 54.3812 163.951 57.3042C164.373 60.2568 163.987 65.3687 163.53 67.4275C161.842 75.0199 160.33 76.0965 158.643 76.5183C156.955 76.9401 153.46 77.9176 149.363 76.0965C145.567 74.4093 145.114 68.7557 144.301 64.286Z" fill="#DDDAD0"/>
<path fill-rule="evenodd" clip-rule="evenodd" d="M198.762 67.0227C198.656 67.05 198.58 67.0464 198.539 67.0057C198.483 66.9496 198.569 66.9606 198.762 67.0227Z" fill="#DDDAD0"/>
<path fill-rule="evenodd" clip-rule="evenodd" d="M204.053 38.3494C203.179 37.4793 200.84 36.4624 191.79 35.7921C183.54 35.1809 176.184 36.743 175.34 37.0575C175.018 37.1777 173.653 37.4793 169.857 39.5883C166.06 41.6973 169.013 42.541 168.591 42.9627C168.254 43.3001 170.419 44.6499 171.544 45.4936C172.809 46.3372 173.315 45.4092 173.653 45.0718C174.075 44.65 173.653 44.883 173.653 44.2282C174.075 44.2282 174.918 44.2282 175.34 43.8064C175.678 43.4689 177.871 42.8221 178.715 42.9627C179.136 54.3515 181.245 62.0845 181.667 64.053C181.667 64.1936 181.696 64.3765 180.402 64.053C178.715 63.6312 176.184 64.4748 175.762 64.053C175.34 63.6312 174.918 63.2094 174.497 65.7402C174.075 68.271 174.918 68.271 174.918 69.1146C174.918 69.7895 176.043 70.38 176.606 70.38L183.776 70.8018L184.198 71.2236C184.198 72.489 185.463 75.6748 185.885 78.8162C186.328 82.1101 185.885 83.4559 188.416 83.4559C190.103 83.4559 190.525 83.4559 191.369 83.0341C192.123 82.6569 192.634 80.5033 192.634 79.6597C192.634 78.9848 191.931 76.2076 191.79 75.0199C191.65 73.4951 191.959 71.8843 190.947 71.6454C192.212 71.9266 194.712 72.7599 195.165 72.9108C197.696 73.7545 198.258 74.1763 199.805 74.5981C201.438 75.3787 205.411 76.2186 206.554 76.7071C207.819 77.2481 214.568 80.0815 216.677 80.5033C218.786 80.9251 218.786 80.5033 219.63 79.6597C220.304 78.9848 219.77 77.5507 219.63 76.7071C219.63 75.8635 219.208 75.4417 217.521 74.5981C215.92 73.7977 214.146 72.489 212.459 72.0672C210.772 71.6454 207.819 70.38 206.554 69.9582C205.456 69.5924 200.023 67.4281 198.762 67.0227C198.656 67.05 198.58 67.0464 198.539 67.0057C198.483 66.9496 198.569 66.9606 198.762 67.0227C199.752 66.7669 203.101 64.1417 204.445 63.2093C207.819 60.8673 208.241 60.2567 209.506 58.5695C210.772 56.8823 210.772 54.3515 210.772 51.3988C210.772 48.4462 209.506 46.1484 208.241 43.3845C207.397 41.2755 205.148 39.3071 204.023 38.3229L204.053 38.3494ZM186.729 56.0387L185.463 48.868L184.62 42.9627C185.042 42.541 185.042 42.9628 188.416 42.9628C189.26 42.9628 196.009 42.9627 197.696 43.3845C199.383 43.8064 201.914 45.0718 202.757 46.759C203.179 47.6026 204.023 48.868 204.023 53.086C204.023 57.3041 197.274 60.2567 196.43 60.6785C195.755 61.016 193.056 61.9439 191.79 62.3657C191.228 62.5063 189.935 62.6188 189.26 61.9439C188.585 61.2691 187.291 58.4289 186.729 56.0387Z" fill="#DDDAD0"/>
<path d="M218.786 37.9011C220.895 40.0101 221.232 40.4319 222.582 42.1191C224.269 44.2282 233.971 57.7259 235.658 59.8349C237.345 61.1003 244.938 69.9582 246.625 71.6454L247.89 72.0672L247.469 66.1619L246.625 58.9913C245.36 53.9296 243.672 44.2282 242.829 41.6973C242.154 38.9978 241.142 37.4793 240.72 37.0575H239.876C239.595 37.0575 239.033 36.8888 239.033 36.2139C239.033 35.3703 237.767 34.5267 238.611 31.1522C239.286 28.4527 243.11 29.465 244.938 30.3086C245.5 30.4492 246.794 31.6584 247.469 35.3702C248.312 40.0101 250.915 41.5432 252.53 53.9296C253.796 63.6311 253.796 67.4274 254.218 71.6454L255.061 79.6597C255.061 80.0815 254.808 81.0938 253.796 81.7687C252.53 82.6123 249.578 83.8778 248.734 83.0341C247.89 82.1905 247.469 83.4561 243.672 78.8162L243.669 78.8122C239.872 74.1709 233.971 66.1619 232.284 64.0529C231.757 63.3942 227.222 58.1478 226.8 57.7259L223.004 53.9296C222.582 56.0386 225.113 53.086 225.113 54.7732C225.113 56.924 226.378 65.3183 227.222 68.271L228.909 74.5981C229.331 75.4416 229.331 75.4416 230.175 76.5183C230.291 76.6669 231.018 77.5506 231.862 78.3943C232.537 79.0692 232.284 80.7845 232.284 81.3469C232.143 82.3311 231.44 83.4559 230.596 83.8777C229.753 84.2995 228.909 84.2995 227.644 84.2995C226.701 84.2995 225.113 84.2995 224.269 82.1905C223.426 80.0815 222.28 74.5896 222.16 73.7544C220.895 64.8965 220.051 62.3657 219.208 58.5695C218.83 56.8717 218.364 53.9296 217.942 52.2424C217.605 50.8927 216.677 46.3372 215.833 44.2281C215.511 43.423 215.833 43.8063 214.99 42.1191C214.235 40.61 211.867 38.9147 214.568 36.2139C215.833 34.9484 217.521 36.6357 218.786 37.9011Z" fill="#DDDAD0"/>
<path d="M169.857 39.5883C166.06 41.6973 169.013 42.541 168.591 42.9627C168.254 43.3001 170.419 44.6499 171.544 45.4936C172.809 46.3372 173.315 45.4092 173.653 45.0718C174.075 44.65 173.653 44.883 173.653 44.2282C174.075 44.2282 174.918 44.2282 175.34 43.8064C175.678 43.4689 177.871 42.8221 178.715 42.9627C179.136 54.3515 181.245 62.0845 181.667 64.053C181.667 64.1936 181.696 64.3765 180.402 64.053C178.715 63.6312 176.184 64.4748 175.762 64.053C175.34 63.6312 174.918 63.2094 174.497 65.7402C174.075 68.271 174.918 68.271 174.918 69.1146C174.918 69.7895 176.043 70.38 176.606 70.38L183.776 70.8018L184.198 71.2236C184.198 72.489 185.463 75.6748 185.885 78.8162C186.328 82.1101 185.885 83.4559 188.416 83.4559C190.103 83.4559 190.525 83.4559 191.369 83.0341C192.123 82.6569 192.634 80.5033 192.634 79.6597C192.634 78.9848 191.931 76.2076 191.79 75.0199C191.65 73.4951 191.959 71.8843 190.947 71.6454C192.212 71.9266 194.712 72.7599 195.165 72.9108C197.696 73.7545 198.258 74.1763 199.805 74.5981C201.438 75.3787 205.411 76.2186 206.554 76.7071C207.819 77.2481 214.568 80.0815 216.677 80.5033C218.786 80.9251 218.786 80.5033 219.63 79.6597C220.304 78.9848 219.77 77.5507 219.63 76.7071C219.63 75.8635 219.208 75.4417 217.521 74.5981C215.92 73.7977 214.146 72.489 212.459 72.0672C210.772 71.6454 207.819 70.38 206.554 69.9582C205.456 69.5924 200.023 67.4281 198.762 67.0227M169.857 39.5883C173.653 37.4793 175.018 37.1777 175.34 37.0575M169.857 39.5883C172.894 37.9011 176.184 37.0575 175.34 37.0575M204.023 38.3229C205.148 39.3071 207.397 41.2755 208.241 43.3845C209.506 46.1484 210.772 48.4462 210.772 51.3988C210.772 54.3515 210.772 56.8823 209.506 58.5695C208.241 60.2567 207.819 60.8673 204.445 63.2093C203.101 64.1417 199.752 66.7669 198.762 67.0227M204.023 38.3229L204.053 38.3494M204.023 38.3229C204.023 38.3229 204.866 39.5883 204.053 38.3494M175.34 37.0575C176.184 36.743 183.54 35.1809 191.79 35.7921C200.84 36.4624 203.179 37.4793 204.053 38.3494M198.762 67.0227C198.656 67.05 198.58 67.0464 198.539 67.0057C198.483 66.9496 198.569 66.9606 198.762 67.0227ZM246.625 71.6454C244.938 69.9582 237.345 61.1003 235.658 59.8349C233.971 57.7259 224.269 44.2282 222.582 42.1191C221.232 40.4319 220.895 40.0101 218.786 37.9011C217.521 36.6357 215.833 34.9484 214.568 36.2139C211.867 38.9147 214.235 40.61 214.99 42.1191C215.833 43.8063 215.511 43.423 215.833 44.2281C216.677 46.3372 217.605 50.8927 217.942 52.2424C218.364 53.9296 218.83 56.8717 219.208 58.5695C220.051 62.3657 220.895 64.8965 222.16 73.7544C222.28 74.5896 223.426 80.0815 224.269 82.1905C225.113 84.2995 226.701 84.2995 227.644 84.2995C228.909 84.2995 229.753 84.2995 230.596 83.8777C231.44 83.4559 232.143 82.3311 232.284 81.3469C232.284 80.7845 232.537 79.0692 231.862 78.3943C231.018 77.5506 230.291 76.6669 230.175 76.5183C229.331 75.4416 229.331 75.4416 228.909 74.5981L227.222 68.271C226.378 65.3183 225.113 56.924 225.113 54.7732C225.113 53.086 222.582 56.0386 223.004 53.9296M246.625 71.6454C247.975 72.9952 247.75 71.9266 247.89 72.0672M246.625 71.6454L247.89 72.0672M247.89 72.0672L247.469 66.1619L246.625 58.9913C245.36 53.9296 243.672 44.2282 242.829 41.6973C242.154 38.9978 241.142 37.4793 240.72 37.0575H239.876C239.595 37.0575 239.033 36.8888 239.033 36.2139C239.033 35.3703 237.767 34.5267 238.611 31.1522C239.286 28.4527 243.11 29.465 244.938 30.3086C245.5 30.4492 246.794 31.6584 247.469 35.3702C248.312 40.0101 250.915 41.5432 252.53 53.9296C253.796 63.6311 253.796 67.4274 254.218 71.6454L255.061 79.6597C255.061 80.0815 254.808 81.0938 253.796 81.7687C252.53 82.6123 249.578 83.8778 248.734 83.0341C247.89 82.1905 247.469 83.4561 243.672 78.8162M243.672 78.8162L243.669 78.8122M243.672 78.8162C243.671 78.8148 243.67 78.8135 243.669 78.8122M226.8 57.7259C227.222 58.1478 231.757 63.3942 232.284 64.0529C233.971 66.1619 239.872 74.1709 243.669 78.8122M226.8 57.7259C226.463 57.3883 223.566 54.492 223.004 53.9296M226.8 57.7259L223.004 53.9296M143.88 47.4138C143.598 51.913 143.458 59.6461 144.301 64.286C145.114 68.7557 145.567 74.4093 149.363 76.0965C153.46 77.9176 156.955 76.9401 158.643 76.5183C160.33 76.0965 161.842 75.0199 163.53 67.4275C163.987 65.3687 164.373 60.2568 163.951 57.3042C163.534 54.3812 162.861 47.8356 162.861 46.992C162.861 46.1484 162.264 42.9628 164.795 42.9628C167.326 42.9628 167.545 44.5503 167.922 45.3048C168.766 46.992 169.435 51.3989 169.857 55.617C170.152 58.5682 170.194 64.8966 169.857 66.5839C169.435 68.6929 169.435 75.4417 166.482 79.238C163.988 82.4454 159.627 84.1108 157.799 84.5326C152.563 85.741 147.501 84.2996 145.145 82.4235C142.345 80.1941 139.347 73.9434 139.065 73.3327C137.203 69.3035 137.874 64.0451 137.552 59.2243C137.131 52.8973 137.552 51.21 137.974 47.8356C138.421 44.2596 138.643 41.6973 140.33 40.8537C142.018 40.01 143.283 40.8537 143.705 42.5409C143.789 42.8776 144.052 44.65 143.88 47.4138ZM184.62 42.9627C185.042 42.541 185.042 42.9628 188.416 42.9628C189.26 42.9628 196.009 42.9627 197.696 43.3845C199.383 43.8064 201.914 45.0718 202.757 46.759C203.179 47.6026 204.023 48.868 204.023 53.086C204.023 57.3041 197.274 60.2567 196.43 60.6785C195.755 61.016 193.056 61.9439 191.79 62.3657C191.228 62.5063 189.935 62.6188 189.26 61.9439C188.585 61.2691 187.291 58.4289 186.729 56.0387L185.463 48.868L184.62 42.9627Z" stroke="#DDDAD0"/>
<path fill-rule="evenodd" clip-rule="evenodd" d="M100.657 43.0075C99.2714 44.6628 96.4169 49.8769 96.0843 57.4912C95.7518 65.1054 97.3996 68.9466 98.5786 71.1472C99.6871 73.2163 103.29 80.665 112.297 86.0446C117.285 89.0241 122.412 88.1137 124.352 87.2861C126.015 86.5964 129.84 84.0583 131.835 79.4235C134.329 73.6301 135.161 64.5261 134.745 58.3188C134.329 52.1115 132.666 46.3181 127.678 38.8693C123.687 32.9103 114.375 33.9035 111.465 34.7312C107.62 35.8249 104.315 38.7038 100.657 43.0075ZM103.151 52.1116C103.983 47.9734 105.923 46.1802 107.308 45.0766C109.387 43.4214 110.634 42.5938 112.297 41.7661C113.637 41.0988 120.195 39.697 123.521 43.0075C126.431 46.3181 127.107 52.605 127.678 54.5945C128.509 57.4912 128.509 64.9399 127.678 69.4919C127.013 73.1335 126.846 78.1821 121.027 80.2512C117.701 81.0788 106.893 77.3545 104.398 69.0781C101.488 63.6985 102.32 57.905 103.151 52.1116Z" fill="#DDDAD0" stroke="#DDDAD0"/>
<path d="M15.4764 9.21841C41.7969 11.2431 63.562 15.1237 71.1545 16.8109L77.0598 34.1048C78.6064 40.0101 82.2058 55.5325 84.2304 70.38C86.7613 88.9394 84.5892 106.262 83.7424 111.004C81.351 124.396 77.5248 133.229 60.6094 141.243C55.829 142.649 45.0027 145.039 32.3485 139.134C16.6073 131.788 18.119 129.777 14.7446 127.247C13.3129 126.173 10.2503 123.582 10.6721 120.629C10.9704 118.541 16.7418 117.622 18.429 117.2C22.8895 117.2 24.3343 115.935 25.1779 115.091C25.8528 114.416 24.7561 110.451 23.9125 109.608C23.6312 109.186 21.3816 108.764 18.8508 109.186C12.1019 110.873 9.57111 111.295 6.19668 112.982C2.82225 115.091 1.27563 117.06 1.13503 118.466C0.572623 119.731 1.47247 124.455 9.57111 133.229C19.6944 144.196 27.7837 147.354 31.5049 148.836C36.676 150.895 42.6104 152.615 52.1733 151.788C60.5854 151.061 67.9592 148.682 76.5682 142.093C89.0035 130.985 91.0821 120.368 91.8732 114.831C92.7168 108.925 93.3645 102.279 93.7863 94.2646C94.2081 84.1413 93.9319 74.1762 88.8703 48.0244C84.821 27.1029 81.8402 18.4981 80.856 16.8109C103.212 18.0763 104.899 19.3417 108.695 19.7635C120.506 22.1256 127.676 22.4349 129.785 22.2943C131.191 22.0131 133.835 20.8602 133.16 18.4981C132.316 15.5455 129.785 14.7018 128.942 14.7018C98.5718 10.062 101.923 10.7352 92.6665 10.062C69.4673 8.37478 64.4056 7.10935 53.4387 5.84395C18.429 -0.483108 16.32 1.20413 14.211 1.20413C12.1019 1.20413 10.8365 2.04774 9.57111 2.89135C6.19668 5.59089 8.1651 7.39059 9.57111 7.953C10.2741 8.2342 12.4394 8.88097 15.4764 9.21841Z" fill="#DDDAD0"/>
<path fill-rule="evenodd" clip-rule="evenodd" d="M266.872 39.1665L266.45 45.4935L265.606 57.3041L264.763 64.0529H262.232C261.107 64.0529 258.773 64.1373 258.436 64.4747C258.014 64.8965 255.483 64.8965 257.17 67.8492C258.52 70.2113 260.263 70.5206 260.966 70.38H264.763L263.497 80.0815C263.357 80.7845 263.244 82.5279 263.919 83.8777C264.594 85.2275 265.184 85.4243 265.606 85.5649C266.45 85.8461 268.643 86.4929 268.981 85.1431C269.656 83.7934 270.105 81.4875 270.246 80.5033C270.387 79.2379 270.668 76.6227 270.668 76.2852C270.668 75.9478 270.949 72.7702 271.09 71.2236H276.151L276.573 75.4416C276.573 75.7228 276.911 76.8758 278.26 79.2379C279.948 82.1905 280.791 83.8777 281.213 84.2995C281.55 84.637 282.76 86.1273 283.322 86.8303C283.744 87.3927 284.672 88.5176 285.009 88.5176C285.431 88.5176 285.853 89.3612 287.54 88.5176C288.89 87.8427 289.227 86.8303 289.227 86.4085C289.368 85.8461 289.396 84.2152 288.384 82.1905C287.371 80.1658 285.853 77.8319 285.431 76.707L284.587 73.3326L284.166 70.8018L290.493 70.38C292.18 70.38 293.53 69.8738 293.867 69.5364C294.289 69.1146 295.132 68.271 295.132 67.0055C295.132 65.7401 295.976 67.0056 295.132 64.4747C293.445 62.7875 293.867 62.3657 291.758 62.3657H287.962L284.166 62.7875H282.478H281.213C280.51 58.0071 277.67 46.2528 276.995 42.5409C276.32 38.829 274.605 31.7146 273.62 28.6214C273.199 27.356 272.777 25.2469 271.933 24.8251C271.179 24.4479 270.246 23.9815 268.981 24.8251C267.789 25.6193 267.434 27.6372 267.293 28.1996L266.872 39.1665ZM271.511 61.1003L272.355 54.3514L274.886 63.2093H273.199L271.09 63.6311L271.511 61.1003Z" fill="#DDDAD0"/>
<path d="M291.758 62.3657C293.867 62.3657 293.445 62.7875 295.132 64.4747C295.976 67.0056 295.132 65.7401 295.132 67.0055C295.132 68.271 294.289 69.1146 293.867 69.5364C293.53 69.8738 292.18 70.38 290.493 70.38L284.166 70.8018L284.587 73.3326L285.431 76.707C285.853 77.8319 287.371 80.1658 288.384 82.1905C289.396 84.2152 289.368 85.8461 289.227 86.4085C289.227 86.8303 288.89 87.8427 287.54 88.5176C285.853 89.3612 285.431 88.5176 285.009 88.5176C284.672 88.5176 283.744 87.3927 283.322 86.8303C282.76 86.1273 281.55 84.637 281.213 84.2995C280.791 83.8777 279.948 82.1905 278.26 79.2379C276.911 76.8758 276.573 75.7228 276.573 75.4416L276.151 71.2236H271.09C270.949 72.7702 270.668 75.9478 270.668 76.2852C270.668 76.6227 270.387 79.2379 270.246 80.5033C270.105 81.4875 269.656 83.7934 268.981 85.1431C268.643 86.4929 266.45 85.8461 265.606 85.5649C265.184 85.4243 264.594 85.2275 263.919 83.8777C263.244 82.5279 263.357 80.7845 263.497 80.0815L264.763 70.38H260.966C260.263 70.5206 258.52 70.2113 257.17 67.8492C255.483 64.8965 258.014 64.8965 258.436 64.4747C258.773 64.1373 261.107 64.0529 262.232 64.0529H264.763L265.606 57.3041L266.45 45.4935L266.872 39.1665L267.293 28.1996C267.434 27.6372 267.789 25.6193 268.981 24.8251C270.246 23.9815 271.179 24.4479 271.933 24.8251C272.777 25.2469 273.199 27.356 273.62 28.6214C274.605 31.7146 276.32 38.829 276.995 42.5409C277.67 46.2528 280.51 58.0071 281.213 62.7875H282.478H284.166L287.962 62.3657M291.758 62.3657C288.702 62.3657 288.243 62.3657 287.962 62.3657M291.758 62.3657H287.962M71.1545 16.8109C63.562 15.1237 41.7969 11.2431 15.4764 9.21841C12.4394 8.88097 10.2741 8.2342 9.57111 7.953C8.1651 7.39059 6.19668 5.59089 9.57111 2.89135C10.8365 2.04774 12.1019 1.20413 14.211 1.20413C16.32 1.20413 18.429 -0.483108 53.4387 5.84395C64.4056 7.10935 69.4673 8.37478 92.6665 10.062C101.923 10.7352 98.5718 10.062 128.942 14.7018C129.785 14.7018 132.316 15.5455 133.16 18.4981C133.835 20.8602 131.191 22.0131 129.785 22.2943C127.676 22.4349 120.506 22.1256 108.695 19.7635C104.899 19.3417 103.212 18.0763 80.856 16.8109C81.8402 18.4981 84.821 27.1029 88.8703 48.0244C93.9319 74.1762 94.2081 84.1413 93.7863 94.2646C93.3645 102.279 92.7168 108.925 91.8732 114.831C91.0821 120.368 89.0035 130.985 76.5682 142.093C67.9592 148.682 60.5854 151.061 52.1733 151.788C42.6104 152.615 36.676 150.895 31.5049 148.836C27.7837 147.354 19.6944 144.196 9.57111 133.229C1.47247 124.455 0.572623 119.731 1.13503 118.466C1.27563 117.06 2.82225 115.091 6.19668 112.982C9.57111 111.295 12.1019 110.873 18.8508 109.186C21.3816 108.764 23.6312 109.186 23.9125 109.608C24.7561 110.451 25.8528 114.416 25.1779 115.091C24.3343 115.935 22.8895 117.2 18.429 117.2C16.7418 117.622 10.9704 118.541 10.6721 120.629C10.2503 123.582 13.3129 126.173 14.7446 127.247C18.119 129.777 16.6073 131.788 32.3485 139.134C45.0027 145.039 55.829 142.649 60.6094 141.243C77.5248 133.229 81.351 124.396 83.7424 111.004C84.5892 106.262 86.7613 88.9394 84.2304 70.38C82.2058 55.5325 78.6064 40.0101 77.0598 34.1048L71.1545 16.8109ZM272.355 54.3514L271.511 61.1003L271.09 63.6311L273.199 63.2093H274.886L272.355 54.3514Z" stroke="#DDDAD0"/>
</svg>
