<svg width="172" height="75" viewBox="0 0 172 75" fill="none" xmlns="http://www.w3.org/2000/svg">
<path d="M144.012 15.1691C143.876 15.9168 143.89 16.882 144.216 18.0239C144.542 19.1659 144.624 22.5781 144.624 24.1415V30.0551C144.556 31.7544 144.718 35.0903 144.828 35.9687C145.032 37.6001 144.828 38.4158 144.828 38.8236C144.828 39.2314 144.828 39.8432 145.236 40.0471C145.644 40.251 145.847 40.455 148.091 40.455C150.334 40.455 151.578 39.1565 151.965 39.0275C152.577 38.8236 153.8 38.4158 156.247 38.6197C158.694 38.8236 161.345 39.2314 162.161 39.4354C162.977 39.6393 163.996 40.0471 165.016 40.251C166.035 40.455 167.259 40.455 168.075 40.455C168.89 40.455 170.318 40.251 170.522 39.6393C170.726 39.0275 170.929 38.4158 170.726 38.0079C170.522 37.6001 170.318 37.1923 169.298 36.9883C169.015 36.9318 167.79 36.5805 166.035 36.5805C165.22 36.5805 163.996 36.1727 162.569 35.9687C161.963 35.8822 159.306 35.357 157.675 35.357C156.043 35.357 152.985 34.9492 149.722 35.7648C149.232 35.928 148.566 35.9687 148.294 35.9687C148.362 34.8132 148.091 32.2419 148.091 31.7525C148.091 31.1407 148.294 24.652 148.091 23.4285L148.294 16.4918C148.294 14.6566 147.887 12.926 147.887 12.722C147.887 12.5181 147.479 11.7024 146.663 11.0907C146.5 10.9683 145.847 10.6828 145.236 11.0907C144.746 11.417 144.352 12.9939 144.216 13.7416L144.012 15.1691Z" fill="#DDDAD0"/>
<path d="M148.091 23.4285C148.294 24.652 148.091 31.1407 148.091 31.7525C148.091 32.2419 148.362 34.8132 148.294 35.9687C148.566 35.9687 149.232 35.928 149.722 35.7648C152.985 34.9492 156.043 35.357 157.675 35.357C159.306 35.357 161.963 35.8822 162.569 35.9687C163.996 36.1727 165.22 36.5805 166.035 36.5805C167.79 36.5805 169.015 36.9318 169.298 36.9883C170.318 37.1923 170.522 37.6001 170.726 38.0079C170.929 38.4158 170.726 39.0275 170.522 39.6393C170.318 40.251 168.89 40.455 168.075 40.455C167.259 40.455 166.035 40.455 165.016 40.251C163.996 40.0471 162.977 39.6393 162.161 39.4354C161.345 39.2314 158.694 38.8236 156.247 38.6197C153.8 38.4158 152.577 38.8236 151.965 39.0275C151.578 39.1565 150.334 40.455 148.091 40.455C145.847 40.455 145.644 40.251 145.236 40.0471C144.828 39.8432 144.828 39.2314 144.828 38.8236C144.828 38.4158 145.032 37.6001 144.828 35.9687C144.718 35.0903 144.556 31.7544 144.624 30.0551V24.1415C144.624 22.5781 144.542 19.1659 144.216 18.0239C143.89 16.882 143.876 15.9168 144.012 15.1691L144.216 13.7416C144.352 12.9939 144.746 11.417 145.236 11.0907C145.847 10.6828 146.5 10.9683 146.663 11.0907C147.479 11.7024 147.887 12.5181 147.887 12.722C147.887 12.926 148.294 14.6566 148.294 16.4918M148.091 23.4285C148.091 22.0011 148.294 18.3271 148.294 16.4918M148.091 23.4285L148.294 16.4918" stroke="#DDDAD0"/>
<path d="M70.2781 31.5952C69.8703 29.3521 69.9383 25.6136 70.0742 23.4385C70.1577 22.1023 70.0304 21.2455 69.9897 21.0827C69.7858 20.267 69.1741 19.8592 68.3584 20.267C67.5427 20.6749 67.4355 21.9136 67.2194 23.6424C67.0154 25.2737 66.8115 26.0894 67.0154 29.1482C67.1708 31.4788 66.8465 34.0209 67.7466 35.9688C67.8831 36.264 69.3324 39.2859 70.686 40.3637C71.825 41.2707 74.272 41.9675 76.8035 41.3833C77.6872 41.1794 79.7953 40.3743 81.0013 38.8237C82.4288 36.9884 82.4288 33.7257 82.6327 32.7061C82.7958 31.8904 82.7754 28.831 82.6327 27.4042C82.4288 25.365 82.1054 23.2346 81.6976 22.4189C81.5152 22.0541 81.4092 21.2867 80.1857 21.2867C78.9622 21.2867 79.2505 22.8267 79.2505 23.2346C79.2505 23.6424 79.576 26.8068 79.7778 28.2199C79.9818 29.6473 79.7951 32.1186 79.5739 33.114C78.7582 36.7845 78.027 37.3049 77.2114 37.5089C76.3957 37.7128 74.706 38.1853 72.7252 37.3049C70.8899 36.4893 70.671 33.7561 70.2781 31.5952Z" fill="#DDDAD0"/>
<path fill-rule="evenodd" clip-rule="evenodd" d="M96.6067 32.9183C96.5556 32.9315 96.5188 32.9297 96.4992 32.91C96.4721 32.8829 96.5133 32.8882 96.6067 32.9183Z" fill="#DDDAD0"/>
<path fill-rule="evenodd" clip-rule="evenodd" d="M99.1648 19.0564C98.7423 18.6357 97.6114 18.1441 93.2365 17.82C89.248 17.5246 85.6915 18.2797 85.2836 18.4318C85.1278 18.4899 84.468 18.6357 82.6327 19.6553C80.7974 20.6749 82.2249 21.0828 82.0209 21.2866C81.8578 21.4497 82.9046 22.1023 83.4484 22.5101C84.0601 22.918 84.3048 22.4694 84.468 22.3062C84.6719 22.1023 84.468 22.215 84.468 21.8984C84.6719 21.8984 85.0797 21.8984 85.2836 21.6945C85.4468 21.5313 86.5071 21.2187 86.915 21.2866C87.1189 26.7924 88.1385 30.5309 88.3424 31.4826C88.3424 31.5505 88.3563 31.639 87.7307 31.4826C86.915 31.2786 85.6915 31.6865 85.4876 31.4826C85.2836 31.2786 85.0797 31.0747 84.8758 32.2982C84.6719 33.5218 85.0797 33.5218 85.0797 33.9296C85.0797 34.2559 85.6235 34.5413 85.8954 34.5413L89.362 34.7453L89.5659 34.9492C89.5659 35.5609 90.1777 37.1011 90.3816 38.6198C90.5954 40.2122 90.3816 40.8628 91.6051 40.8628C92.4208 40.8628 92.6247 40.8628 93.0325 40.6589C93.3973 40.4765 93.6443 39.4354 93.6443 39.0276C93.6443 38.7013 93.3044 37.3586 93.2365 36.7844C93.1685 36.0473 93.318 35.2686 92.8286 35.1531C93.4404 35.289 94.6489 35.6919 94.8678 35.7649C96.0913 36.1727 96.3632 36.3766 97.1109 36.5805C97.9004 36.9579 99.8213 37.364 100.374 37.6001C100.985 37.8617 104.248 39.2315 105.268 39.4354C106.287 39.6393 106.287 39.4354 106.695 39.0276C107.021 38.7013 106.763 38.008 106.695 37.6001C106.695 37.1923 106.491 36.9884 105.675 36.5805C104.902 36.1936 104.044 35.5609 103.228 35.357C102.413 35.1531 100.985 34.5413 100.374 34.3374C99.8431 34.1606 97.2163 33.1142 96.6067 32.9183C96.5556 32.9315 96.5188 32.9297 96.4992 32.91C96.4721 32.8829 96.5133 32.8882 96.6067 32.9183C97.0852 32.7946 98.7046 31.5255 99.354 31.0747C100.985 29.9425 101.189 29.6473 101.801 28.8316C102.413 28.0159 102.413 26.7924 102.413 25.365C102.413 23.9376 101.801 22.8267 101.189 21.4906C100.781 20.471 99.6939 19.5193 99.1501 19.0435L99.1648 19.0564ZM90.7894 27.6081L90.1777 24.1415L89.7698 21.2866C89.9738 21.0827 89.9738 21.2866 91.6051 21.2866C92.013 21.2866 95.2756 21.2866 96.0913 21.4906C96.907 21.6945 98.1305 22.3062 98.5383 23.1219C98.7423 23.5297 99.1501 24.1415 99.1501 26.1807C99.1501 28.2199 95.8874 29.6473 95.4796 29.8512C95.1533 30.0143 93.8482 30.463 93.2365 30.6669C92.9646 30.7349 92.3392 30.7892 92.013 30.463C91.6867 30.1367 91.0613 28.7636 90.7894 27.6081Z" fill="#DDDAD0"/>
<path d="M106.287 18.8396C107.307 19.8592 107.47 20.0631 108.123 20.8788C108.938 21.8984 113.628 28.4238 114.444 29.4434C115.26 30.0551 118.93 34.3374 119.746 35.1531L120.358 35.357L120.154 32.5021L119.746 29.0355C119.134 26.5885 118.318 21.8984 117.911 20.6749C117.584 19.3698 117.095 18.6357 116.891 18.4318H116.483C116.347 18.4318 116.075 18.3502 116.075 18.0239C116.075 17.6161 115.464 17.2083 115.871 15.5769C116.198 14.2718 118.047 14.7612 118.93 15.1691C119.202 15.237 119.827 15.8216 120.154 17.6161C120.562 19.8592 121.82 20.6003 122.601 26.5885C123.212 31.2786 123.212 33.1139 123.416 35.1531L123.824 39.0275C123.824 39.2315 123.702 39.7209 123.212 40.0471C122.601 40.455 121.173 41.0667 120.765 40.6589C120.358 40.251 120.154 40.8629 118.318 38.6197L118.317 38.6178C116.481 36.374 113.628 32.5021 112.813 31.4826C112.558 31.1641 110.366 28.6277 110.162 28.4238L108.326 26.5885C108.123 27.6081 109.346 26.1807 109.346 26.9963C109.346 28.0361 109.958 32.0943 110.366 33.5217L111.181 36.5805C111.385 36.9884 111.385 36.9884 111.793 37.5089C111.849 37.5807 112.201 38.0079 112.609 38.4158C112.935 38.7421 112.813 39.5713 112.813 39.8432C112.745 40.319 112.405 40.8628 111.997 41.0667C111.589 41.2706 111.181 41.2706 110.57 41.2706C110.114 41.2706 109.346 41.2706 108.938 40.251C108.53 39.2315 107.976 36.5764 107.919 36.1727C107.307 31.8904 106.899 30.6669 106.491 28.8316C106.309 28.0109 106.083 26.5885 105.879 25.7728C105.716 25.1203 105.268 22.918 104.86 21.8984C104.704 21.5091 104.86 21.6945 104.452 20.8788C104.087 20.1492 102.942 19.3296 104.248 18.0239C104.86 17.4122 105.676 18.2278 106.287 18.8396Z" fill="#DDDAD0"/>
<path d="M82.6327 19.6553C80.7974 20.6749 82.2249 21.0828 82.0209 21.2866C81.8578 21.4497 82.9046 22.1023 83.4484 22.5101C84.0601 22.918 84.3048 22.4694 84.468 22.3062C84.6719 22.1023 84.468 22.215 84.468 21.8984C84.6719 21.8984 85.0797 21.8984 85.2836 21.6945C85.4468 21.5313 86.5071 21.2187 86.915 21.2866C87.1189 26.7924 88.1385 30.5309 88.3424 31.4826C88.3424 31.5505 88.3563 31.639 87.7307 31.4826C86.915 31.2786 85.6915 31.6865 85.4876 31.4826C85.2836 31.2786 85.0797 31.0747 84.8758 32.2982C84.6719 33.5218 85.0797 33.5218 85.0797 33.9296C85.0797 34.2559 85.6235 34.5413 85.8954 34.5413L89.362 34.7453L89.5659 34.9492C89.5659 35.5609 90.1777 37.1011 90.3816 38.6198C90.5954 40.2122 90.3816 40.8628 91.6051 40.8628C92.4208 40.8628 92.6247 40.8628 93.0325 40.6589C93.3973 40.4765 93.6443 39.4354 93.6443 39.0276C93.6443 38.7013 93.3044 37.3586 93.2365 36.7844C93.1685 36.0473 93.318 35.2686 92.8286 35.1531C93.4404 35.289 94.6489 35.6919 94.8678 35.7649C96.0913 36.1727 96.3632 36.3766 97.1109 36.5805C97.9004 36.9579 99.8213 37.364 100.374 37.6001C100.985 37.8617 104.248 39.2315 105.268 39.4354C106.287 39.6393 106.287 39.4354 106.695 39.0276C107.021 38.7013 106.763 38.008 106.695 37.6001C106.695 37.1923 106.491 36.9884 105.675 36.5805C104.902 36.1936 104.044 35.5609 103.228 35.357C102.413 35.1531 100.985 34.5413 100.374 34.3374C99.8431 34.1606 97.2163 33.1142 96.6067 32.9183M82.6327 19.6553C84.468 18.6357 85.1278 18.4899 85.2836 18.4318M82.6327 19.6553C84.1009 18.8396 85.6915 18.4318 85.2836 18.4318M99.1501 19.0435C99.6939 19.5193 100.781 20.471 101.189 21.4906C101.801 22.8267 102.413 23.9376 102.413 25.365C102.413 26.7924 102.413 28.0159 101.801 28.8316C101.189 29.6473 100.985 29.9425 99.354 31.0747C98.7046 31.5255 97.0852 32.7946 96.6067 32.9183M99.1501 19.0435L99.1648 19.0564M99.1501 19.0435C99.1501 19.0435 99.5579 19.6553 99.1648 19.0564M85.2836 18.4318C85.6915 18.2797 89.248 17.5246 93.2365 17.82C97.6114 18.1441 98.7423 18.6357 99.1648 19.0564M96.6067 32.9183C96.5556 32.9315 96.5188 32.9297 96.4992 32.91C96.4721 32.8829 96.5133 32.8882 96.6067 32.9183ZM119.746 35.1531C118.93 34.3374 115.26 30.0551 114.444 29.4434C113.628 28.4238 108.938 21.8984 108.123 20.8788C107.47 20.0631 107.307 19.8592 106.287 18.8396C105.676 18.2278 104.86 17.4122 104.248 18.0239C102.942 19.3296 104.087 20.1492 104.452 20.8788C104.86 21.6945 104.704 21.5091 104.86 21.8984C105.268 22.918 105.716 25.1203 105.879 25.7728C106.083 26.5885 106.309 28.0109 106.491 28.8316C106.899 30.6669 107.307 31.8904 107.919 36.1727C107.976 36.5764 108.53 39.2315 108.938 40.251C109.346 41.2706 110.114 41.2706 110.57 41.2706C111.181 41.2706 111.589 41.2706 111.997 41.0667C112.405 40.8628 112.745 40.319 112.813 39.8432C112.813 39.5713 112.935 38.7421 112.609 38.4158C112.201 38.0079 111.849 37.5807 111.793 37.5089C111.385 36.9884 111.385 36.9884 111.181 36.5805L110.366 33.5217C109.958 32.0943 109.346 28.0361 109.346 26.9963C109.346 26.1807 108.123 27.6081 108.326 26.5885M119.746 35.1531C120.398 35.8056 120.29 35.289 120.358 35.357M119.746 35.1531L120.358 35.357M120.358 35.357L120.154 32.5021L119.746 29.0355C119.134 26.5885 118.318 21.8984 117.911 20.6749C117.584 19.3698 117.095 18.6357 116.891 18.4318H116.483C116.347 18.4318 116.075 18.3502 116.075 18.0239C116.075 17.6161 115.464 17.2083 115.871 15.5769C116.198 14.2718 118.047 14.7612 118.93 15.1691C119.202 15.237 119.827 15.8216 120.154 17.6161C120.562 19.8592 121.82 20.6003 122.601 26.5885C123.212 31.2786 123.212 33.1139 123.416 35.1531L123.824 39.0275C123.824 39.2315 123.702 39.7209 123.212 40.0471C122.601 40.455 121.173 41.0667 120.765 40.6589C120.358 40.251 120.154 40.8629 118.318 38.6197M118.318 38.6197L118.317 38.6178M118.318 38.6197C118.318 38.6191 118.317 38.6185 118.317 38.6178M110.162 28.4238C110.366 28.6277 112.558 31.1641 112.813 31.4826C113.628 32.5021 116.481 36.374 118.317 38.6178M110.162 28.4238C109.999 28.2606 108.598 26.8604 108.326 26.5885M110.162 28.4238L108.326 26.5885M70.0742 23.4385C69.9383 25.6136 69.8703 29.3521 70.2781 31.5952C70.671 33.7561 70.8899 36.4893 72.7252 37.3049C74.706 38.1853 76.3957 37.7128 77.2114 37.5089C78.027 37.3049 78.7582 36.7845 79.5739 33.114C79.7951 32.1186 79.9818 29.6473 79.7778 28.2199C79.576 26.8068 79.2505 23.6424 79.2505 23.2346C79.2505 22.8267 78.9622 21.2867 80.1857 21.2867C81.4092 21.2867 81.5152 22.0541 81.6976 22.4189C82.1054 23.2346 82.4288 25.365 82.6327 27.4042C82.7754 28.831 82.7958 31.8904 82.6327 32.7061C82.4288 33.7257 82.4288 36.9884 81.0013 38.8237C79.7953 40.3743 77.6872 41.1794 76.8035 41.3833C74.272 41.9675 71.825 41.2707 70.686 40.3637C69.3324 39.2859 67.8831 36.264 67.7466 35.9688C66.8465 34.0209 67.1708 31.4788 67.0154 29.1482C66.8115 26.0894 67.0154 25.2737 67.2194 23.6424C67.4355 21.9136 67.5427 20.6749 68.3584 20.267C69.1741 19.8592 69.7858 20.267 69.9897 21.0827C70.0304 21.2455 70.1577 22.1023 70.0742 23.4385ZM89.7698 21.2866C89.9738 21.0827 89.9738 21.2866 91.6051 21.2866C92.013 21.2866 95.2756 21.2866 96.0913 21.4906C96.907 21.6945 98.1305 22.3062 98.5383 23.1219C98.7423 23.5297 99.1501 24.1415 99.1501 26.1807C99.1501 28.2199 95.8874 29.6473 95.4796 29.8512C95.1533 30.0143 93.8482 30.463 93.2365 30.6669C92.9646 30.7349 92.3392 30.7892 92.013 30.463C91.6867 30.1367 91.0613 28.7636 90.7894 27.6081L90.1777 24.1415L89.7698 21.2866Z" stroke="#DDDAD0"/>
<path fill-rule="evenodd" clip-rule="evenodd" d="M49.1786 21.3083C48.5087 22.1085 47.1287 24.6292 46.9679 28.3103C46.8071 31.9914 47.6038 33.8484 48.1737 34.9122C48.7097 35.9125 50.4514 39.5136 54.8057 42.1143C57.2174 43.5547 59.696 43.1146 60.6339 42.7145C61.4377 42.381 63.2867 41.154 64.2513 38.9134C65.4571 36.1126 65.8591 31.7113 65.6581 28.7104C65.4571 25.7095 64.6533 22.9087 62.2416 19.3077C60.3123 16.4269 55.8106 16.907 54.4038 17.3071C52.5448 17.8359 50.9471 19.2277 49.1786 21.3083ZM50.3844 25.7096C50.7863 23.709 51.7242 22.8421 52.3941 22.3086C53.399 21.5083 54.0019 21.1082 54.8057 20.7081C55.4539 20.3855 58.6242 19.7078 60.2319 21.3083C61.6387 22.9087 61.9656 25.9481 62.2416 26.9099C62.6436 28.3103 62.6436 31.9114 62.2416 34.112C61.9201 35.8725 61.8397 38.3132 59.0261 39.3135C57.4184 39.7136 52.1931 37.9131 50.9873 33.9119C49.5805 31.3112 49.9825 28.5104 50.3844 25.7096Z" fill="#DDDAD0" stroke="#DDDAD0"/>
<path d="M7.99851 4.97314C20.723 5.95195 31.2452 7.828 34.9158 8.64367L37.7706 17.0043C38.5183 19.8592 40.2584 27.3634 41.2372 34.5413C42.4607 43.5137 41.4107 51.8884 41.0013 54.1809C39.8452 60.6551 37.9954 64.9252 29.8178 68.7996C27.5067 69.4794 22.2728 70.6349 16.1553 67.78C8.54524 64.2287 9.27609 63.2567 7.64474 62.0331C6.95262 61.5141 5.47201 60.2613 5.67593 58.8338C5.82012 57.8245 8.61027 57.3802 9.42594 57.1763C11.5824 57.1763 12.2808 56.5645 12.6886 56.1567C13.0149 55.8304 12.4847 53.9136 12.0769 53.5057C11.9409 53.3018 10.8534 53.0979 9.62986 53.3018C6.36716 54.1175 5.14365 54.3214 3.5123 55.1371C1.88095 56.1567 1.13325 57.1083 1.06528 57.788C0.793387 58.3998 1.22841 60.6837 5.14365 64.9252C10.0377 70.2271 13.9484 71.7538 15.7474 72.4702C18.2474 73.4657 21.1163 74.2972 25.7394 73.8976C29.8062 73.5461 33.371 72.3957 37.533 69.2103C43.5448 63.8405 44.5496 58.7079 44.9321 56.0307C45.3399 53.1759 45.653 49.9626 45.857 46.0882C46.0609 41.1941 45.9274 36.3766 43.4803 23.7336C41.5227 13.6193 40.0817 9.45934 39.6059 8.64367C50.4136 9.25544 51.2292 9.86717 53.0645 10.0711C58.7742 11.213 62.2408 11.3626 63.2604 11.2946C63.9402 11.1587 65.218 10.6013 64.8918 9.45934C64.4839 8.03191 63.2604 7.62407 62.8526 7.62407C48.1705 5.38096 49.7908 5.70643 45.3156 5.38097C34.1001 4.56529 31.6531 3.95353 26.3512 3.34178C9.42594 0.283001 8.40635 1.09869 7.38675 1.09869C6.36716 1.09869 5.7554 1.50652 5.14365 1.91436C3.5123 3.21944 4.46392 4.08949 5.14365 4.36138C5.48352 4.49733 6.5303 4.81 7.99851 4.97314Z" fill="#DDDAD0"/>
<path fill-rule="evenodd" clip-rule="evenodd" d="M129.534 19.4513L129.33 22.5101L128.922 28.2198L128.514 31.4825H127.291C126.747 31.4825 125.619 31.5233 125.456 31.6865C125.252 31.8904 124.028 31.8904 124.844 33.3178C125.496 34.4597 126.339 34.6093 126.679 34.5413H128.514L127.903 39.2314C127.835 39.5713 127.78 40.4142 128.107 41.0667C128.433 41.7192 128.718 41.8144 128.922 41.8824C129.33 42.0183 130.39 42.331 130.554 41.6785C130.88 41.0259 131.097 39.9112 131.165 39.4354C131.233 38.8236 131.369 37.5593 131.369 37.3962C131.369 37.233 131.505 35.6969 131.573 34.9492H134.02L134.224 36.9883C134.224 37.1243 134.387 37.6817 135.04 38.8236C135.855 40.251 136.263 41.0667 136.467 41.2706C136.63 41.4338 137.215 42.1543 137.487 42.4941C137.691 42.766 138.139 43.3098 138.302 43.3098C138.506 43.3098 138.71 43.7176 139.526 43.3098C140.178 42.9835 140.342 42.4941 140.342 42.2902C140.41 42.0183 140.423 41.2298 139.934 40.251C139.444 39.2722 138.71 38.1439 138.506 37.6001L138.099 35.9687L137.895 34.7452L140.953 34.5413C141.769 34.5413 142.422 34.2966 142.585 34.1335C142.789 33.9296 143.196 33.5217 143.196 32.91C143.196 32.2982 143.604 32.91 143.196 31.6865C142.381 30.8708 142.585 30.6669 141.565 30.6669H139.73L137.895 30.8708H137.079H136.467C136.127 28.5597 134.754 22.8772 134.428 21.0827C134.102 19.2882 133.272 15.8488 132.797 14.3534C132.593 13.7416 132.389 12.722 131.981 12.5181C131.616 12.3357 131.165 12.1103 130.554 12.5181C129.978 12.902 129.806 13.8776 129.738 14.1495L129.534 19.4513ZM131.777 30.0551L132.185 26.7924L133.408 31.0747H132.593L131.573 31.2786L131.777 30.0551Z" fill="#DDDAD0"/>
<path d="M141.565 30.6669C142.585 30.6669 142.381 30.8708 143.196 31.6865C143.604 32.91 143.196 32.2982 143.196 32.91C143.196 33.5217 142.789 33.9296 142.585 34.1335C142.422 34.2966 141.769 34.5413 140.953 34.5413L137.895 34.7452L138.099 35.9687L138.506 37.6001C138.71 38.1439 139.444 39.2722 139.934 40.251C140.423 41.2298 140.41 42.0183 140.342 42.2902C140.342 42.4941 140.178 42.9835 139.526 43.3098C138.71 43.7176 138.506 43.3098 138.302 43.3098C138.139 43.3098 137.691 42.766 137.487 42.4941C137.215 42.1543 136.63 41.4338 136.467 41.2706C136.263 41.0667 135.855 40.251 135.04 38.8236C134.387 37.6817 134.224 37.1243 134.224 36.9883L134.02 34.9492H131.573C131.505 35.6969 131.369 37.233 131.369 37.3962C131.369 37.5593 131.233 38.8236 131.165 39.4354C131.097 39.9112 130.88 41.0259 130.554 41.6785C130.39 42.331 129.33 42.0183 128.922 41.8824C128.718 41.8144 128.433 41.7192 128.107 41.0667C127.78 40.4142 127.835 39.5713 127.903 39.2314L128.514 34.5413H126.679C126.339 34.6093 125.496 34.4597 124.844 33.3178C124.028 31.8904 125.252 31.8904 125.456 31.6865C125.619 31.5233 126.747 31.4825 127.291 31.4825H128.514L128.922 28.2198L129.33 22.5101L129.534 19.4513L129.738 14.1495C129.806 13.8776 129.978 12.902 130.554 12.5181C131.165 12.1103 131.616 12.3357 131.981 12.5181C132.389 12.722 132.593 13.7416 132.797 14.3534C133.272 15.8488 134.102 19.2882 134.428 21.0827C134.754 22.8772 136.127 28.5597 136.467 30.8708H137.079H137.895L139.73 30.6669M141.565 30.6669C140.088 30.6669 139.866 30.6669 139.73 30.6669M141.565 30.6669H139.73M34.9158 8.64367C31.2452 7.828 20.723 5.95195 7.99851 4.97314C6.5303 4.81 5.48352 4.49733 5.14365 4.36138C4.46392 4.08949 3.5123 3.21944 5.14365 1.91436C5.7554 1.50652 6.36716 1.09869 7.38675 1.09869C8.40635 1.09869 9.42594 0.283001 26.3512 3.34178C31.6531 3.95353 34.1001 4.56529 45.3156 5.38097C49.7908 5.70643 48.1705 5.38096 62.8526 7.62407C63.2604 7.62407 64.4839 8.03191 64.8918 9.45934C65.218 10.6013 63.9402 11.1587 63.2604 11.2946C62.2408 11.3626 58.7742 11.213 53.0645 10.0711C51.2292 9.86717 50.4136 9.25544 39.6059 8.64367C40.0817 9.45934 41.5227 13.6193 43.4803 23.7336C45.9274 36.3766 46.0609 41.1941 45.857 46.0882C45.653 49.9626 45.3399 53.1759 44.9321 56.0307C44.5496 58.7079 43.5448 63.8405 37.533 69.2103C33.371 72.3957 29.8062 73.5461 25.7394 73.8976C21.1163 74.2972 18.2474 73.4657 15.7474 72.4702C13.9484 71.7538 10.0377 70.2271 5.14365 64.9252C1.22841 60.6837 0.793387 58.3998 1.06528 57.788C1.13325 57.1083 1.88095 56.1567 3.5123 55.1371C5.14365 54.3214 6.36716 54.1175 9.62986 53.3018C10.8534 53.0979 11.9409 53.3018 12.0769 53.5057C12.4847 53.9136 13.0149 55.8304 12.6886 56.1567C12.2808 56.5645 11.5824 57.1763 9.42594 57.1763C8.61027 57.3802 5.82012 57.8245 5.67593 58.8338C5.47201 60.2613 6.95262 61.5141 7.64474 62.0331C9.27609 63.2567 8.54524 64.2287 16.1553 67.78C22.2728 70.6349 27.5067 69.4794 29.8178 68.7996C37.9954 64.9252 39.8452 60.6551 41.0013 54.1809C41.4107 51.8884 42.4607 43.5137 41.2372 34.5413C40.2584 27.3634 38.5183 19.8592 37.7706 17.0043L34.9158 8.64367ZM132.185 26.7924L131.777 30.0551L131.573 31.2786L132.593 31.0747H133.408L132.185 26.7924Z" stroke="#DDDAD0"/>
</svg>
