<svg width="232" height="101" viewBox="0 0 232 101" fill="none" xmlns="http://www.w3.org/2000/svg">
<path d="M194.948 20.2156C194.764 21.2296 194.782 22.5386 195.225 24.0872C195.667 25.6359 195.778 30.2634 195.778 32.3836V40.4035C195.685 42.7081 195.905 47.2321 196.054 48.4234C196.331 50.6357 196.054 51.7419 196.054 52.295C196.054 52.8481 196.054 53.6778 196.607 53.9543C197.16 54.2308 197.437 54.5074 200.479 54.5074C203.521 54.5074 205.209 52.7465 205.733 52.5716C206.563 52.295 208.222 51.7419 211.541 52.0185C214.859 52.295 218.455 52.8481 219.561 53.1247C220.667 53.4012 222.05 53.9543 223.432 54.2308C224.815 54.5074 226.474 54.5074 227.581 54.5074C228.687 54.5074 230.623 54.2308 230.899 53.4012C231.176 52.5716 231.452 51.7419 231.176 51.1888C230.899 50.6357 230.623 50.0826 229.24 49.8061C228.856 49.7294 227.195 49.253 224.815 49.253C223.709 49.253 222.05 48.6999 220.114 48.4234C219.293 48.306 215.689 47.5937 213.477 47.5937C211.264 47.5937 207.116 47.0406 202.691 48.1468C202.028 48.368 201.124 48.4234 200.756 48.4234C200.848 46.8563 200.479 43.3691 200.479 42.7054C200.479 41.8757 200.756 33.076 200.479 31.4167L200.756 22.0095C200.756 19.5206 200.202 17.1735 200.202 16.897C200.202 16.6204 199.649 15.5143 198.543 14.6846C198.322 14.5187 197.437 14.1315 196.607 14.6846C195.944 15.1271 195.409 17.2657 195.225 18.2797L194.948 20.2156Z" fill="#DDDAD0"/>
<path d="M200.479 31.4167C200.756 33.076 200.479 41.8757 200.479 42.7054C200.479 43.3691 200.848 46.8563 200.756 48.4234C201.124 48.4234 202.028 48.368 202.691 48.1468C207.116 47.0406 211.264 47.5937 213.477 47.5937C215.689 47.5937 219.293 48.306 220.114 48.4234C222.05 48.6999 223.709 49.253 224.815 49.253C227.195 49.253 228.856 49.7294 229.24 49.8061C230.623 50.0826 230.899 50.6357 231.176 51.1888C231.452 51.7419 231.176 52.5716 230.899 53.4012C230.623 54.2308 228.687 54.5074 227.581 54.5074C226.474 54.5074 224.815 54.5074 223.432 54.2308C222.05 53.9543 220.667 53.4012 219.561 53.1247C218.455 52.8481 214.859 52.295 211.541 52.0185C208.222 51.7419 206.563 52.295 205.733 52.5716C205.209 52.7465 203.521 54.5074 200.479 54.5074C197.437 54.5074 197.16 54.2308 196.607 53.9543C196.054 53.6778 196.054 52.8481 196.054 52.295C196.054 51.7419 196.331 50.6357 196.054 48.4234C195.905 47.2321 195.685 42.7081 195.778 40.4035V32.3836C195.778 30.2634 195.667 25.6359 195.225 24.0872C194.782 22.5386 194.764 21.2296 194.948 20.2156L195.225 18.2797C195.409 17.2657 195.944 15.1271 196.607 14.6846C197.437 14.1315 198.322 14.5187 198.543 14.6846C199.649 15.5143 200.202 16.6204 200.202 16.897C200.202 17.1735 200.756 19.5206 200.756 22.0095M200.479 31.4167C200.479 29.4809 200.756 24.4984 200.756 22.0095M200.479 31.4167L200.756 22.0095" stroke="#DDDAD0"/>
<path d="M94.9525 42.4921C94.3994 39.4501 94.4916 34.3801 94.676 31.4302C94.7892 29.6182 94.6166 28.4562 94.5614 28.2354C94.2849 27.1292 93.4552 26.5761 92.3491 27.1292C91.2429 27.6823 91.0974 29.3622 90.8043 31.7068C90.5278 33.9192 90.2512 35.0254 90.5278 39.1736C90.7385 42.3342 90.2987 45.7818 91.5194 48.4234C91.7044 48.8238 93.6699 52.9219 95.5056 54.3837C97.0504 55.6137 100.369 56.5586 103.802 55.7664C105 55.4898 107.859 54.398 109.495 52.2951C111.431 49.8062 111.431 45.3814 111.707 43.9987C111.929 42.8925 111.901 38.7434 111.707 36.8085C111.431 34.043 110.992 31.1537 110.439 30.0475C110.192 29.5528 110.048 28.5121 108.389 28.5121C106.73 28.5121 107.121 30.6006 107.121 31.1537C107.121 31.7068 107.562 35.9983 107.836 37.9147C108.112 39.8505 107.859 43.202 107.559 44.5518C106.453 49.5296 105.461 50.2355 104.355 50.512C103.249 50.7886 100.957 51.4294 98.2711 50.2355C95.7822 49.1293 95.4853 45.4226 94.9525 42.4921Z" fill="#DDDAD0"/>
<path fill-rule="evenodd" clip-rule="evenodd" d="M130.658 44.2864C130.589 44.3043 130.539 44.3019 130.513 44.2752C130.476 44.2385 130.532 44.2457 130.658 44.2864Z" fill="#DDDAD0"/>
<path fill-rule="evenodd" clip-rule="evenodd" d="M134.128 25.4874C133.555 24.9169 132.021 24.2502 126.088 23.8107C120.679 23.41 115.856 24.4341 115.302 24.6404C115.091 24.7192 114.196 24.9169 111.707 26.2996C109.218 27.6824 111.154 28.2355 110.878 28.512C110.656 28.7332 112.076 29.6182 112.814 30.1713C113.643 30.7244 113.975 30.116 114.196 29.8947C114.473 29.6182 114.196 29.771 114.196 29.3416C114.473 29.3416 115.026 29.3416 115.302 29.0651C115.524 28.8439 116.962 28.4198 117.515 28.512C117.791 35.9788 119.174 41.0488 119.451 42.3394C119.451 42.4315 119.469 42.5515 118.621 42.3394C117.515 42.0628 115.856 42.6159 115.579 42.3394C115.302 42.0628 115.026 41.7863 114.749 43.4455C114.473 45.1048 115.026 45.1048 115.026 45.6579C115.026 46.1004 115.763 46.4876 116.132 46.4876L120.833 46.7641L121.11 47.0407C121.11 47.8703 121.94 49.959 122.216 52.0186C122.506 54.1781 122.216 55.0605 123.875 55.0605C124.982 55.0605 125.258 55.0605 125.811 54.784C126.306 54.5366 126.641 53.1247 126.641 52.5716C126.641 52.1291 126.18 50.3083 126.088 49.5296C125.996 48.5299 126.198 47.4738 125.535 47.3172C126.364 47.5016 128.003 48.0479 128.3 48.1468C129.959 48.6999 130.328 48.9765 131.342 49.253C132.413 49.7649 135.018 50.3155 135.767 50.6358C136.597 50.9905 141.021 52.8481 142.404 53.1247C143.787 53.4012 143.787 53.1247 144.34 52.5716C144.782 52.1291 144.432 51.1889 144.34 50.6358C144.34 50.0827 144.063 49.8061 142.957 49.253C141.908 48.7283 140.745 47.8703 139.639 47.5937C138.532 47.3172 136.597 46.4876 135.767 46.211C135.048 45.9712 131.485 44.5522 130.658 44.2864C130.589 44.3043 130.539 44.3019 130.513 44.2752C130.476 44.2385 130.532 44.2457 130.658 44.2864C131.307 44.1187 133.503 42.3975 134.384 41.7863C136.597 40.2507 136.873 39.8504 137.703 38.7442C138.532 37.638 138.532 35.9788 138.532 34.0429C138.532 32.1071 137.703 30.6006 136.873 28.7885C136.32 27.4058 134.845 26.1153 134.108 25.47L134.128 25.4874ZM122.769 37.085L121.94 32.3837L121.387 28.512C121.663 28.2355 121.663 28.512 123.875 28.512C124.429 28.512 128.853 28.512 129.959 28.7885C131.066 29.0651 132.725 29.8947 133.278 31.0009C133.555 31.554 134.108 32.3837 134.108 35.1491C134.108 37.9146 129.683 39.8504 129.13 40.127C128.687 40.3482 126.917 40.9566 126.088 41.2332C125.719 41.3254 124.871 41.3991 124.429 40.9566C123.986 40.5141 123.138 38.6521 122.769 37.085Z" fill="#DDDAD0"/>
<path d="M143.787 25.1934C145.17 26.5762 145.391 26.8527 146.276 27.9589C147.382 29.3416 153.743 38.1911 154.849 39.5739C155.955 40.4035 160.933 46.211 162.039 47.3172L162.869 47.5937L162.592 43.7221L162.039 39.0208C161.209 35.7022 160.103 29.3416 159.55 27.6824C159.108 25.9124 158.444 24.9169 158.167 24.6403H157.614C157.43 24.6403 157.061 24.5297 157.061 24.0872C157.061 23.5341 156.231 22.9811 156.785 20.7687C157.227 18.9988 159.734 19.6625 160.933 20.2156C161.301 20.3078 162.15 21.1005 162.592 23.5341C163.145 26.5762 164.851 27.5813 165.911 35.7022C166.74 42.0628 166.74 44.5517 167.017 47.3172L167.57 52.5716C167.57 52.8481 167.404 53.5118 166.74 53.9543C165.911 54.5074 163.975 55.3371 163.422 54.784C162.869 54.2309 162.592 55.0606 160.103 52.0186L160.101 52.0159C157.611 48.973 153.743 43.7221 152.636 42.3394C152.291 41.9075 149.318 38.4677 149.041 38.1911L146.552 35.7022C146.276 37.0849 147.935 35.1491 147.935 36.2553C147.935 37.6654 148.765 43.169 149.318 45.1048L150.424 49.253C150.7 49.8061 150.7 49.8061 151.254 50.512C151.33 50.6094 151.807 51.1888 152.36 51.7419C152.802 52.1845 152.636 53.3091 152.636 53.6778C152.544 54.323 152.083 55.0605 151.53 55.337C150.977 55.6136 150.424 55.6136 149.594 55.6136C148.976 55.6136 147.935 55.6136 147.382 54.2309C146.829 52.8481 146.077 49.2475 145.999 48.6999C145.17 42.8924 144.616 41.2332 144.063 38.7442C143.816 37.6311 143.51 35.7022 143.234 34.596C143.012 33.7111 142.404 30.7244 141.851 29.3416C141.64 28.8137 141.851 29.0651 141.298 27.9589C140.803 26.9695 139.251 25.858 141.021 24.0872C141.851 23.2576 142.957 24.3638 143.787 25.1934Z" fill="#DDDAD0"/>
<path d="M111.707 26.2996C109.218 27.6824 111.154 28.2355 110.878 28.512C110.656 28.7332 112.076 29.6182 112.814 30.1713C113.643 30.7244 113.975 30.116 114.196 29.8947C114.473 29.6182 114.196 29.771 114.196 29.3416C114.473 29.3416 115.026 29.3416 115.302 29.0651C115.524 28.8439 116.962 28.4198 117.515 28.512C117.791 35.9788 119.174 41.0488 119.451 42.3394C119.451 42.4315 119.469 42.5515 118.621 42.3394C117.515 42.0628 115.856 42.6159 115.579 42.3394C115.302 42.0628 115.026 41.7863 114.749 43.4455C114.473 45.1048 115.026 45.1048 115.026 45.6579C115.026 46.1004 115.763 46.4876 116.132 46.4876L120.833 46.7641L121.11 47.0407C121.11 47.8703 121.94 49.959 122.216 52.0186C122.506 54.1781 122.216 55.0605 123.875 55.0605C124.982 55.0605 125.258 55.0605 125.811 54.784C126.306 54.5366 126.641 53.1247 126.641 52.5716C126.641 52.1291 126.18 50.3083 126.088 49.5296C125.996 48.5299 126.198 47.4738 125.535 47.3172C126.364 47.5016 128.003 48.0479 128.3 48.1468C129.959 48.6999 130.328 48.9765 131.342 49.253C132.413 49.7649 135.018 50.3155 135.767 50.6358C136.597 50.9905 141.021 52.8481 142.404 53.1247C143.787 53.4012 143.787 53.1247 144.34 52.5716C144.782 52.1291 144.432 51.1889 144.34 50.6358C144.34 50.0827 144.063 49.8061 142.957 49.253C141.908 48.7283 140.745 47.8703 139.639 47.5937C138.532 47.3172 136.597 46.4876 135.767 46.211C135.048 45.9712 131.485 44.5522 130.658 44.2864M111.707 26.2996C114.196 24.9169 115.091 24.7192 115.302 24.6404M111.707 26.2996C113.698 25.1934 115.856 24.6404 115.302 24.6404M134.108 25.47C134.845 26.1153 136.32 27.4058 136.873 28.7885C137.703 30.6006 138.532 32.1071 138.532 34.0429C138.532 35.9788 138.532 37.638 137.703 38.7442C136.873 39.8504 136.597 40.2507 134.384 41.7863C133.503 42.3975 131.307 44.1187 130.658 44.2864M134.108 25.47L134.128 25.4874M134.108 25.47C134.108 25.47 134.661 26.2996 134.128 25.4874M115.302 24.6404C115.856 24.4341 120.679 23.41 126.088 23.8107C132.021 24.2502 133.555 24.9169 134.128 25.4874M130.658 44.2864C130.589 44.3043 130.539 44.3019 130.513 44.2752C130.476 44.2385 130.532 44.2457 130.658 44.2864ZM162.039 47.3172C160.933 46.211 155.955 40.4035 154.849 39.5739C153.743 38.1911 147.382 29.3416 146.276 27.9589C145.391 26.8527 145.17 26.5762 143.787 25.1934C142.957 24.3638 141.851 23.2576 141.021 24.0872C139.251 25.858 140.803 26.9695 141.298 27.9589C141.851 29.0651 141.64 28.8137 141.851 29.3416C142.404 30.7244 143.012 33.7111 143.234 34.596C143.51 35.7022 143.816 37.6311 144.063 38.7442C144.616 41.2332 145.17 42.8924 145.999 48.6999C146.077 49.2475 146.829 52.8481 147.382 54.2309C147.935 55.6136 148.976 55.6136 149.594 55.6136C150.424 55.6136 150.977 55.6136 151.53 55.337C152.083 55.0605 152.544 54.323 152.636 53.6778C152.636 53.3091 152.802 52.1845 152.36 51.7419C151.807 51.1888 151.33 50.6094 151.254 50.512C150.7 49.8061 150.7 49.8061 150.424 49.253L149.318 45.1048C148.765 43.169 147.935 37.6654 147.935 36.2553C147.935 35.1491 146.276 37.0849 146.552 35.7022M162.039 47.3172C162.924 48.2021 162.776 47.5015 162.869 47.5937M162.039 47.3172L162.869 47.5937M162.869 47.5937L162.592 43.7221L162.039 39.0208C161.209 35.7022 160.103 29.3416 159.55 27.6824C159.108 25.9124 158.444 24.9169 158.167 24.6403H157.614C157.43 24.6403 157.061 24.5297 157.061 24.0872C157.061 23.5341 156.231 22.9811 156.785 20.7687C157.227 18.9988 159.734 19.6625 160.933 20.2156C161.301 20.3078 162.15 21.1005 162.592 23.5341C163.145 26.5762 164.851 27.5813 165.911 35.7022C166.74 42.0628 166.74 44.5517 167.017 47.3172L167.57 52.5716C167.57 52.8481 167.404 53.5118 166.74 53.9543C165.911 54.5074 163.975 55.3371 163.422 54.784C162.869 54.2309 162.592 55.0606 160.103 52.0186M160.103 52.0186L160.101 52.0159M160.103 52.0186C160.102 52.0177 160.102 52.0168 160.101 52.0159M149.041 38.1911C149.318 38.4677 152.291 41.9075 152.636 42.3394C153.743 43.7221 157.611 48.973 160.101 52.0159M149.041 38.1911C148.82 37.9698 146.921 36.0709 146.552 35.7022M149.041 38.1911L146.552 35.7022M94.676 31.4302C94.4916 34.3801 94.3994 39.4501 94.9525 42.4921C95.4853 45.4226 95.7822 49.1293 98.2711 50.2355C100.957 51.4294 103.249 50.7886 104.355 50.512C105.461 50.2355 106.453 49.5296 107.559 44.5518C107.859 43.202 108.112 39.8505 107.836 37.9147C107.562 35.9983 107.121 31.7068 107.121 31.1537C107.121 30.6006 106.73 28.5121 108.389 28.5121C110.048 28.5121 110.192 29.5528 110.439 30.0475C110.992 31.1537 111.431 34.043 111.707 36.8085C111.901 38.7434 111.929 42.8925 111.707 43.9987C111.431 45.3814 111.431 49.8062 109.495 52.2951C107.859 54.398 105 55.4898 103.802 55.7664C100.369 56.5586 97.0504 55.6137 95.5056 54.3837C93.6699 52.9219 91.7044 48.8238 91.5194 48.4234C90.2987 45.7818 90.7385 42.3342 90.5278 39.1736C90.2512 35.0254 90.5278 33.9192 90.8043 31.7068C91.0974 29.3622 91.2429 27.6823 92.3491 27.1292C93.4552 26.5761 94.2849 27.1292 94.5614 28.2354C94.6166 28.4562 94.7892 29.6182 94.676 31.4302ZM121.387 28.512C121.663 28.2355 121.663 28.512 123.875 28.512C124.429 28.512 128.853 28.512 129.959 28.7885C131.066 29.0651 132.725 29.8947 133.278 31.0009C133.555 31.554 134.108 32.3837 134.108 35.1491C134.108 37.9146 129.683 39.8504 129.13 40.127C128.687 40.3482 126.917 40.9566 126.088 41.2332C125.719 41.3254 124.871 41.3991 124.429 40.9566C123.986 40.5141 123.138 38.6521 122.769 37.085L121.94 32.3837L121.387 28.512Z" stroke="#DDDAD0"/>
<path fill-rule="evenodd" clip-rule="evenodd" d="M66.3381 28.5413C65.4296 29.6266 63.5581 33.0451 63.3401 38.0373C63.122 43.0294 64.2024 45.5478 64.9753 46.9906C65.7021 48.3471 68.0643 53.2307 73.9694 56.7577C77.24 58.7112 80.6014 58.1143 81.8733 57.5717C82.9635 57.1195 85.471 55.4554 86.7792 52.4168C88.4145 48.6184 88.9596 42.6495 88.687 38.5799C88.4145 34.5102 87.3243 30.7118 84.0537 25.8282C81.4373 21.9213 75.3322 22.5725 73.4243 23.1151C70.9033 23.8322 68.7365 25.7197 66.3381 28.5413ZM67.9734 34.5102C68.5185 31.7971 69.7904 30.6214 70.6989 29.8979C72.0616 28.8127 72.8792 28.2701 73.9694 27.7274C74.8484 27.2899 79.1478 26.3709 81.3282 28.5413C83.2361 30.7118 83.6793 34.8337 84.0537 36.1381C84.5988 38.0373 84.5988 42.9209 84.0537 45.9053C83.6176 48.2928 83.5086 51.6028 79.6929 52.9594C77.5126 53.502 70.4263 51.0602 68.791 45.634C66.8832 42.1069 67.4283 38.3086 67.9734 34.5102Z" fill="#DDDAD0" stroke="#DDDAD0"/>
<path d="M10.4911 6.38823C27.7477 7.71565 42.0175 10.2599 46.9953 11.3661L50.867 22.7045C51.881 26.5762 54.2409 36.7531 55.5683 46.4875C57.2276 58.6556 55.8036 70.013 55.2484 73.1221C53.6805 81.9022 51.1719 87.6931 40.0817 92.9474C36.9475 93.8693 29.8494 95.4364 21.553 91.5647C11.2326 86.7485 12.2237 85.4303 10.0114 83.771C9.07273 83.067 7.06478 81.368 7.34133 79.4322C7.53687 78.0633 11.3208 77.4608 12.427 77.1843C15.3514 77.1843 16.2986 76.3546 16.8517 75.8015C17.2942 75.359 16.5752 72.7595 16.0221 72.2064C15.8377 71.9299 14.3628 71.6533 12.7035 71.9299C8.27875 73.0361 6.61947 73.3126 4.4071 74.4188C2.19472 75.8015 1.18071 77.0921 1.08853 78.0139C0.719799 78.8435 1.30977 81.9409 6.61947 87.6931C13.2566 94.8833 18.5602 96.9537 20.9999 97.9253C24.3903 99.2754 28.281 100.403 34.5507 99.8611C40.0659 99.3844 44.9004 97.8243 50.5447 93.5044C58.6977 86.2221 60.0605 79.2614 60.5791 75.6307C61.1322 71.759 61.5569 67.4014 61.8334 62.147C62.11 55.5099 61.9289 48.9765 58.6103 31.8305C55.9555 18.1138 54.0012 12.4723 53.3559 11.3661C68.0129 12.1957 69.1191 13.0253 71.608 13.3019C79.3513 14.8505 84.0526 15.0534 85.4354 14.9612C86.3572 14.7768 88.0902 14.0209 87.6478 12.4723C87.0947 10.5364 85.4354 9.98333 84.8823 9.98333C64.9709 6.94131 67.1683 7.3827 61.0992 6.94131C45.8892 5.83512 42.5706 5.00547 35.3804 4.17584C12.427 0.0276311 11.0442 1.13383 9.66149 1.13383C8.27875 1.13383 7.44911 1.68693 6.61947 2.24002C4.4071 4.00992 5.69765 5.18986 6.61947 5.55859C7.08038 5.74295 8.49999 6.16699 10.4911 6.38823Z" fill="#DDDAD0"/>
<path fill-rule="evenodd" clip-rule="evenodd" d="M175.313 26.0231L175.037 30.1713L174.484 37.9146L173.93 42.3393H172.271C171.534 42.3393 170.003 42.3946 169.782 42.6159C169.506 42.8924 167.846 42.8924 168.953 44.8283C169.838 46.3769 170.981 46.5797 171.442 46.4875H173.93L173.101 52.8481C173.009 53.309 172.935 54.4521 173.377 55.337C173.82 56.222 174.207 56.351 174.484 56.4432C175.037 56.6276 176.475 57.0516 176.696 56.1667C177.138 55.2817 177.433 53.7699 177.526 53.1247C177.618 52.295 177.802 50.5804 177.802 50.3592C177.802 50.138 177.986 48.0546 178.079 47.0406H181.397L181.674 49.8061C181.674 49.9905 181.895 50.7464 182.78 52.295C183.886 54.2309 184.439 55.337 184.716 55.6136C184.937 55.8348 185.73 56.812 186.099 57.2729C186.375 57.6416 186.983 58.3791 187.205 58.3791C187.481 58.3791 187.758 58.9322 188.864 58.3791C189.749 57.9366 189.97 57.2729 189.97 56.9963C190.062 56.6276 190.081 55.5583 189.417 54.2309C188.753 52.9034 187.758 51.3732 187.481 50.6357L186.928 48.4234L186.652 46.7641L190.8 46.4875C191.906 46.4875 192.791 46.1557 193.012 45.9344C193.289 45.6579 193.842 45.1048 193.842 44.2752C193.842 43.4455 194.395 44.2752 193.842 42.6159C192.736 41.5097 193.012 41.2331 191.629 41.2331H189.141L186.652 41.5097H185.545H184.716C184.255 38.3755 182.393 30.669 181.95 28.2354C181.508 25.8018 180.383 21.1374 179.738 19.1094C179.461 18.2797 179.185 16.897 178.632 16.6205C178.137 16.3731 177.526 16.0674 176.696 16.6205C175.915 17.1411 175.682 18.4641 175.59 18.8328L175.313 26.0231ZM178.355 40.4035L178.908 35.9787L180.568 41.7862H179.461L178.079 42.0628L178.355 40.4035Z" fill="#DDDAD0"/>
<path d="M191.629 41.2331C193.012 41.2331 192.736 41.5097 193.842 42.6159C194.395 44.2752 193.842 43.4455 193.842 44.2752C193.842 45.1048 193.289 45.6579 193.012 45.9344C192.791 46.1557 191.906 46.4875 190.8 46.4875L186.652 46.7641L186.928 48.4234L187.481 50.6357C187.758 51.3732 188.753 52.9034 189.417 54.2309C190.081 55.5583 190.062 56.6276 189.97 56.9963C189.97 57.2729 189.749 57.9366 188.864 58.3791C187.758 58.9322 187.481 58.3791 187.205 58.3791C186.983 58.3791 186.375 57.6416 186.099 57.2729C185.73 56.812 184.937 55.8348 184.716 55.6136C184.439 55.337 183.886 54.2309 182.78 52.295C181.895 50.7464 181.674 49.9905 181.674 49.8061L181.397 47.0406H178.079C177.986 48.0546 177.802 50.138 177.802 50.3592C177.802 50.5804 177.618 52.295 177.526 53.1247C177.433 53.7699 177.138 55.2817 176.696 56.1667C176.475 57.0516 175.037 56.6276 174.484 56.4432C174.207 56.351 173.82 56.222 173.377 55.337C172.935 54.4521 173.009 53.309 173.101 52.8481L173.93 46.4875H171.442C170.981 46.5797 169.838 46.3769 168.953 44.8283C167.846 42.8924 169.506 42.8924 169.782 42.6159C170.003 42.3946 171.534 42.3393 172.271 42.3393H173.93L174.484 37.9146L175.037 30.1713L175.313 26.0231L175.59 18.8328C175.682 18.4641 175.915 17.1411 176.696 16.6205C177.526 16.0674 178.137 16.3731 178.632 16.6205C179.185 16.897 179.461 18.2797 179.738 19.1094C180.383 21.1374 181.508 25.8018 181.95 28.2354C182.393 30.669 184.255 38.3755 184.716 41.5097H185.545H186.652L189.141 41.2331M191.629 41.2331C189.626 41.2331 189.325 41.2331 189.141 41.2331M191.629 41.2331H189.141M46.9953 11.3661C42.0175 10.2599 27.7477 7.71565 10.4911 6.38823C8.49999 6.16699 7.08038 5.74295 6.61947 5.55859C5.69765 5.18986 4.4071 4.00992 6.61947 2.24002C7.44911 1.68693 8.27875 1.13383 9.66149 1.13383C11.0442 1.13383 12.427 0.0276311 35.3804 4.17584C42.5706 5.00547 45.8892 5.83512 61.0992 6.94131C67.1683 7.3827 64.9709 6.94131 84.8823 9.98333C85.4354 9.98333 87.0947 10.5364 87.6478 12.4723C88.0902 14.0209 86.3572 14.7768 85.4354 14.9612C84.0526 15.0534 79.3513 14.8505 71.608 13.3019C69.1191 13.0253 68.0129 12.1957 53.3559 11.3661C54.0012 12.4723 55.9555 18.1138 58.6103 31.8305C61.9289 48.9765 62.11 55.5099 61.8334 62.147C61.5569 67.4014 61.1322 71.759 60.5791 75.6307C60.0605 79.2614 58.6977 86.2221 50.5447 93.5044C44.9004 97.8243 40.0659 99.3844 34.5507 99.8611C28.281 100.403 24.3903 99.2754 20.9999 97.9253C18.5602 96.9537 13.2566 94.8833 6.61947 87.6931C1.30977 81.9409 0.719799 78.8435 1.08853 78.0139C1.18071 77.0921 2.19472 75.8015 4.4071 74.4188C6.61947 73.3126 8.27875 73.0361 12.7035 71.9299C14.3628 71.6533 15.8377 71.9299 16.0221 72.2064C16.5752 72.7595 17.2942 75.359 16.8517 75.8015C16.2986 76.3546 15.3514 77.1843 12.427 77.1843C11.3208 77.4608 7.53687 78.0633 7.34133 79.4322C7.06478 81.368 9.07273 83.067 10.0114 83.771C12.2237 85.4303 11.2326 86.7485 21.553 91.5647C29.8494 95.4364 36.9475 93.8693 40.0817 92.9474C51.1719 87.6931 53.6805 81.9022 55.2484 73.1221C55.8036 70.013 57.2276 58.6556 55.5683 46.4875C54.2409 36.7531 51.881 26.5762 50.867 22.7045L46.9953 11.3661ZM178.908 35.9787L178.355 40.4035L178.079 42.0628L179.461 41.7862H180.568L178.908 35.9787Z" stroke="#DDDAD0"/>
</svg>
