<svg width="369" height="160" viewBox="0 0 369 160" fill="none" xmlns="http://www.w3.org/2000/svg">
<path d="M310.254 31.6396C309.96 33.2564 309.989 35.3436 310.695 37.813C311.4 40.2824 311.577 47.6611 311.577 51.0418V63.8296C311.43 67.5042 311.78 74.7179 312.017 76.6174C312.458 80.1451 312.017 81.9089 312.017 82.7908C312.017 83.6728 312.017 84.9956 312.899 85.4366C313.781 85.8776 314.222 86.3185 319.073 86.3185C323.923 86.3185 326.614 83.5107 327.451 83.2318C328.774 82.7909 331.42 81.9089 336.711 82.3499C342.003 82.7908 347.735 83.6728 349.499 84.1137C351.263 84.5547 353.468 85.4366 355.672 85.8776C357.877 86.3185 360.523 86.3185 362.287 86.3185C364.051 86.3185 367.137 85.8776 367.578 84.5547C368.019 83.2318 368.46 81.9089 368.019 81.027C367.578 80.1451 367.137 79.2632 364.933 78.8222C364.321 78.6999 361.672 77.9403 357.877 77.9403C356.113 77.9403 353.468 77.0584 350.381 76.6174C349.071 76.4303 343.326 75.2945 339.798 75.2945C336.27 75.2945 329.656 74.4126 322.601 76.1764C321.542 76.5292 320.102 76.6174 319.514 76.6174C319.661 74.1186 319.073 68.5583 319.073 67.5C319.073 66.1771 319.514 52.1458 319.073 49.5L319.514 34.5C319.514 30.5314 318.632 26.789 318.632 26.348C318.632 25.9071 317.75 24.1433 315.986 22.8204C315.633 22.5558 314.222 21.9384 312.899 22.8204C311.841 23.5259 310.989 26.936 310.695 28.5528L310.254 31.6396Z" fill="#D4DCCD"/>
<path d="M319.073 49.5C319.514 52.1458 319.073 66.1771 319.073 67.5C319.073 68.5583 319.661 74.1186 319.514 76.6174C320.102 76.6174 321.542 76.5292 322.601 76.1764C329.656 74.4126 336.27 75.2945 339.798 75.2945C343.326 75.2945 349.071 76.4303 350.381 76.6174C353.468 77.0584 356.113 77.9403 357.877 77.9403C361.672 77.9403 364.321 78.6999 364.933 78.8222C367.137 79.2632 367.578 80.1451 368.019 81.027C368.46 81.9089 368.019 83.2318 367.578 84.5547C367.137 85.8776 364.051 86.3185 362.287 86.3185C360.523 86.3185 357.877 86.3185 355.672 85.8776C353.468 85.4366 351.263 84.5547 349.499 84.1137C347.735 83.6728 342.003 82.7908 336.711 82.3499C331.42 81.9089 328.774 82.7909 327.451 83.2318C326.614 83.5107 323.923 86.3185 319.073 86.3185C314.222 86.3185 313.781 85.8776 312.899 85.4366C312.017 84.9956 312.017 83.6728 312.017 82.7908C312.017 81.9089 312.458 80.1451 312.017 76.6174C311.78 74.7179 311.43 67.5042 311.577 63.8296V51.0418C311.577 47.6611 311.4 40.2824 310.695 37.813C309.989 35.3436 309.96 33.2564 310.254 31.6396L310.695 28.5528C310.989 26.936 311.841 23.5259 312.899 22.8204C314.222 21.9384 315.633 22.5558 315.986 22.8204C317.75 24.1433 318.632 25.9071 318.632 26.348C318.632 26.789 319.514 30.5314 319.514 34.5M319.073 49.5C319.073 46.4133 319.514 38.4686 319.514 34.5M319.073 49.5L319.514 34.5" stroke="#D4DCCD"/>
<path d="M150.809 67.16C149.927 62.3094 150.074 54.2251 150.368 49.5216C150.549 46.6323 150.273 44.7793 150.185 44.4274C149.744 42.6636 148.422 41.7816 146.658 42.6635C144.894 43.5455 144.662 46.2241 144.195 49.9625C143.754 53.4902 143.313 55.254 143.754 61.8685C144.09 66.9081 143.388 72.4054 145.335 76.6175C145.63 77.2559 148.764 83.7905 151.691 86.1212C154.154 88.0825 159.446 89.5893 164.92 88.326C166.831 87.885 171.389 86.144 173.997 82.791C177.084 78.8223 177.084 71.767 177.525 69.5622C177.878 67.7984 177.833 61.1825 177.525 58.0972C177.084 53.6877 176.385 49.0806 175.503 47.3168C175.108 46.528 174.879 44.8685 172.233 44.8685C169.588 44.8685 170.211 48.1987 170.211 49.0806C170.211 49.9626 170.915 56.8054 171.351 59.8611C171.792 62.9478 171.389 68.2918 170.911 70.4441C169.147 78.3814 167.565 79.5068 165.802 79.9478C164.038 80.3888 160.384 81.4106 156.101 79.5068C152.132 77.743 151.659 71.8326 150.809 67.16Z" fill="#D4DCCD"/>
<path fill-rule="evenodd" clip-rule="evenodd" d="M207.743 70.0209C207.632 70.0495 207.553 70.0457 207.51 70.0032C207.452 69.9446 207.541 69.956 207.743 70.0209Z" fill="#D4DCCD"/>
<path fill-rule="evenodd" clip-rule="evenodd" d="M213.274 40.0456C212.361 39.1359 209.915 38.0728 200.455 37.3721C191.83 36.7332 184.139 38.3661 183.257 38.695C182.92 38.8206 181.494 39.1359 177.525 41.3407C173.556 43.5455 176.643 44.4275 176.202 44.8684C175.849 45.2211 178.113 46.6322 179.289 47.5141C180.612 48.3961 181.141 47.4259 181.494 47.0732C181.934 46.6322 181.494 46.8758 181.494 46.1913C181.934 46.1913 182.816 46.1913 183.257 45.7503C183.61 45.3975 185.903 44.7214 186.785 44.8684C187.226 56.7743 189.431 64.8585 189.872 66.9164C189.872 67.0633 189.902 67.2546 188.549 66.9164C186.785 66.4754 184.139 67.3573 183.698 66.9164C183.257 66.4754 182.816 66.0344 182.375 68.6802C181.934 71.3259 182.816 71.3259 182.816 72.2079C182.816 72.9134 183.992 73.5307 184.58 73.5307L192.077 73.9717L192.518 74.4127C192.518 75.7355 193.84 79.066 194.281 82.35C194.744 85.7935 194.281 87.2005 196.927 87.2005C198.691 87.2005 199.132 87.2005 200.014 86.7595C200.803 86.3651 201.337 84.1138 201.337 83.2318C201.337 82.5263 200.602 79.623 200.455 78.3813C200.308 76.7873 200.631 75.1033 199.573 74.8536C200.896 75.1476 203.509 76.0187 203.982 76.1765C206.628 77.0584 207.216 77.4994 208.833 77.9403C210.54 78.7565 214.694 79.6345 215.888 80.1451C217.211 80.7108 224.267 83.6728 226.471 84.1138C228.676 84.5547 228.676 84.1138 229.558 83.2318C230.264 82.5263 229.705 81.0271 229.558 80.1451C229.558 79.2632 229.117 78.8223 227.353 77.9403C225.68 77.1037 223.826 75.7355 222.062 75.2946C220.298 74.8536 217.211 73.5307 215.888 73.0898C214.741 72.7074 209.061 70.4448 207.743 70.0209C207.632 70.0495 207.553 70.0457 207.51 70.0032C207.452 69.9446 207.541 69.956 207.743 70.0209C208.777 69.7536 212.279 67.0091 213.684 66.0344C217.211 63.586 217.652 62.9477 218.975 61.1839C220.298 59.42 220.298 56.7743 220.298 53.6876C220.298 50.6009 218.975 48.1987 217.652 45.3093C216.77 43.1045 214.418 41.0467 213.243 40.0178L213.274 40.0456ZM195.163 58.5381L193.84 51.0418L192.958 44.8684C193.399 44.4274 193.399 44.8684 196.927 44.8684C197.809 44.8684 204.864 44.8684 206.628 45.3093C208.392 45.7503 211.038 47.0732 211.92 48.837C212.361 49.7189 213.243 51.0418 213.243 55.4514C213.243 59.861 206.187 62.9477 205.305 63.3887C204.6 63.7414 201.778 64.7116 200.455 65.1525C199.867 65.2995 198.515 65.4171 197.809 64.7116C197.103 64.006 195.751 61.0369 195.163 58.5381Z" fill="#D4DCCD"/>
<path d="M228.676 39.5768C230.881 41.7817 231.234 42.2226 232.645 43.9864C234.409 46.1912 244.551 60.3019 246.315 62.5067C248.078 63.8296 256.016 73.0898 257.779 74.8536L259.102 75.2945L258.661 69.1211L257.779 61.6248C256.457 56.3333 254.693 46.1912 253.811 43.5455C253.105 40.7233 252.047 39.1359 251.606 38.695H250.724C250.43 38.6949 249.842 38.5186 249.842 37.813C249.842 36.9311 248.519 36.0492 249.401 32.5215C250.107 29.6994 254.105 30.7577 256.016 31.6396C256.604 31.7866 257.956 33.0506 258.661 36.9311C259.543 41.7816 262.264 43.3843 263.953 56.3333C265.276 66.4754 265.276 70.444 265.717 74.8536L266.599 83.2318C266.599 83.6728 266.334 84.7311 265.276 85.4366C263.953 86.3185 260.866 87.6415 259.984 86.7595C259.102 85.8776 258.661 87.2007 254.693 82.35L254.689 82.3458C250.72 77.4938 244.551 69.1211 242.787 66.9163C242.236 66.2277 237.495 60.743 237.054 60.3019L233.086 56.3333C232.645 58.5381 235.291 55.4514 235.291 57.2152C235.291 59.4637 236.613 68.2392 237.495 71.3259L239.259 77.9403C239.7 78.8222 239.7 78.8222 240.582 79.9478C240.704 80.1031 241.464 81.0269 242.346 81.9089C243.051 82.6146 242.787 84.4077 242.787 84.9957C242.64 86.0246 241.905 87.2005 241.023 87.6414C240.141 88.0823 239.259 88.0824 237.936 88.0824C236.95 88.0824 235.291 88.0824 234.409 85.8776C233.527 83.6728 232.329 77.9314 232.204 77.0584C230.881 67.7982 229.999 65.1525 229.117 61.1839C228.723 59.409 228.235 56.3333 227.794 54.5695C227.441 53.1584 226.471 48.396 225.589 46.1912C225.253 45.3495 225.589 45.7503 224.708 43.9864C223.919 42.4088 221.443 40.6365 224.267 37.813C225.589 36.4901 227.353 38.254 228.676 39.5768Z" fill="#D4DCCD"/>
<path d="M177.525 41.3407C173.556 43.5455 176.643 44.4275 176.202 44.8684C175.849 45.2211 178.113 46.6322 179.289 47.5141C180.612 48.3961 181.141 47.4259 181.494 47.0732C181.934 46.6322 181.494 46.8758 181.494 46.1913C181.934 46.1913 182.816 46.1913 183.257 45.7503C183.61 45.3975 185.903 44.7214 186.785 44.8684C187.226 56.7743 189.431 64.8585 189.872 66.9164C189.872 67.0633 189.902 67.2546 188.549 66.9164C186.785 66.4754 184.139 67.3573 183.698 66.9164C183.257 66.4754 182.816 66.0344 182.375 68.6802C181.934 71.3259 182.816 71.3259 182.816 72.2079C182.816 72.9134 183.992 73.5307 184.58 73.5307L192.077 73.9717L192.518 74.4127C192.518 75.7355 193.84 79.066 194.281 82.35C194.744 85.7935 194.281 87.2005 196.927 87.2005C198.691 87.2005 199.132 87.2005 200.014 86.7595C200.803 86.3651 201.337 84.1138 201.337 83.2318C201.337 82.5263 200.602 79.623 200.455 78.3813C200.308 76.7873 200.631 75.1033 199.573 74.8536C200.896 75.1476 203.509 76.0187 203.982 76.1765C206.628 77.0584 207.216 77.4994 208.833 77.9403C210.54 78.7565 214.694 79.6345 215.888 80.1451C217.211 80.7108 224.267 83.6728 226.471 84.1138C228.676 84.5547 228.676 84.1138 229.558 83.2318C230.264 82.5263 229.705 81.0271 229.558 80.1451C229.558 79.2632 229.117 78.8223 227.353 77.9403C225.68 77.1037 223.826 75.7355 222.062 75.2946C220.298 74.8536 217.211 73.5307 215.888 73.0898C214.741 72.7074 209.061 70.4448 207.743 70.0209M177.525 41.3407C181.494 39.1359 182.92 38.8206 183.257 38.695M177.525 41.3407C180.7 39.5769 184.139 38.695 183.257 38.695M213.243 40.0178C214.418 41.0467 216.77 43.1045 217.652 45.3093C218.975 48.1987 220.298 50.6009 220.298 53.6876C220.298 56.7743 220.298 59.42 218.975 61.1839C217.652 62.9477 217.211 63.586 213.684 66.0344C212.279 67.0091 208.777 69.7536 207.743 70.0209M213.243 40.0178L213.274 40.0456M213.243 40.0178C213.243 40.0178 214.125 41.3407 213.274 40.0456M183.257 38.695C184.139 38.3661 191.83 36.7332 200.455 37.3721C209.915 38.0728 212.361 39.1359 213.274 40.0456M207.743 70.0209C207.632 70.0495 207.553 70.0457 207.51 70.0032C207.452 69.9446 207.541 69.956 207.743 70.0209ZM257.779 74.8536C256.016 73.0898 248.078 63.8296 246.315 62.5067C244.551 60.3019 234.409 46.1912 232.645 43.9864C231.234 42.2226 230.881 41.7817 228.676 39.5768C227.353 38.254 225.589 36.4901 224.267 37.813C221.443 40.6365 223.919 42.4088 224.708 43.9864C225.589 45.7503 225.253 45.3495 225.589 46.1912C226.471 48.396 227.441 53.1584 227.794 54.5695C228.235 56.3333 228.723 59.409 229.117 61.1839C229.999 65.1525 230.881 67.7982 232.204 77.0584C232.329 77.9314 233.527 83.6728 234.409 85.8776C235.291 88.0824 236.95 88.0824 237.936 88.0824C239.259 88.0824 240.141 88.0823 241.023 87.6414C241.905 87.2005 242.64 86.0246 242.787 84.9957C242.787 84.4077 243.051 82.6146 242.346 81.9089C241.464 81.0269 240.704 80.1031 240.582 79.9478C239.7 78.8222 239.7 78.8222 239.259 77.9403L237.495 71.3259C236.613 68.2392 235.291 59.4637 235.291 57.2152C235.291 55.4514 232.645 58.5381 233.086 56.3333M257.779 74.8536C259.191 76.2647 258.955 75.1476 259.102 75.2945M257.779 74.8536L259.102 75.2945M259.102 75.2945L258.661 69.1211L257.779 61.6248C256.457 56.3333 254.693 46.1912 253.811 43.5455C253.105 40.7233 252.047 39.1359 251.606 38.695H250.724C250.43 38.6949 249.842 38.5186 249.842 37.813C249.842 36.9311 248.519 36.0492 249.401 32.5215C250.107 29.6994 254.105 30.7577 256.016 31.6396C256.604 31.7866 257.956 33.0506 258.661 36.9311C259.543 41.7816 262.264 43.3843 263.953 56.3333C265.276 66.4754 265.276 70.444 265.717 74.8536L266.599 83.2318C266.599 83.6728 266.334 84.7311 265.276 85.4366C263.953 86.3185 260.866 87.6415 259.984 86.7595C259.102 85.8776 258.661 87.2007 254.693 82.35M254.693 82.35L254.689 82.3458M254.693 82.35C254.692 82.3486 254.691 82.3472 254.689 82.3458M237.054 60.3019C237.495 60.743 242.236 66.2277 242.787 66.9163C244.551 69.1211 250.72 77.4938 254.689 82.3458M237.054 60.3019C236.702 59.9491 233.674 56.9212 233.086 56.3333M237.054 60.3019L233.086 56.3333M150.368 49.5216C150.074 54.2251 149.927 62.3094 150.809 67.16C151.659 71.8326 152.132 77.743 156.101 79.5068C160.384 81.4106 164.038 80.3888 165.802 79.9478C167.565 79.5068 169.147 78.3814 170.911 70.4441C171.389 68.2918 171.792 62.9478 171.351 59.8611C170.915 56.8054 170.211 49.9626 170.211 49.0806C170.211 48.1987 169.588 44.8685 172.233 44.8685C174.879 44.8685 175.108 46.528 175.503 47.3168C176.385 49.0806 177.084 53.6877 177.525 58.0972C177.833 61.1825 177.878 67.7984 177.525 69.5622C177.084 71.767 177.084 78.8223 173.997 82.791C171.389 86.144 166.831 87.885 164.92 88.326C159.446 89.5893 154.154 88.0825 151.691 86.1212C148.764 83.7905 145.63 77.2559 145.335 76.6175C143.388 72.4054 144.09 66.9081 143.754 61.8685C143.313 55.254 143.754 53.4902 144.195 49.9625C144.662 46.2241 144.894 43.5455 146.658 42.6635C148.422 41.7816 149.744 42.6636 150.185 44.4274C150.273 44.7793 150.549 46.6323 150.368 49.5216ZM192.958 44.8684C193.399 44.4274 193.399 44.8684 196.927 44.8684C197.809 44.8684 204.864 44.8684 206.628 45.3093C208.392 45.7503 211.038 47.0732 211.92 48.837C212.361 49.7189 213.243 51.0418 213.243 55.4514C213.243 59.861 206.187 62.9477 205.305 63.3887C204.6 63.7414 201.778 64.7116 200.455 65.1525C199.867 65.2995 198.515 65.4171 197.809 64.7116C197.103 64.006 195.751 61.0369 195.163 58.5381L193.84 51.0418L192.958 44.8684Z" stroke="#D4DCCD"/>
<path fill-rule="evenodd" clip-rule="evenodd" d="M105.183 44.9152C103.734 46.6456 100.75 52.0965 100.402 60.0566C100.055 68.0166 101.777 72.0322 103.01 74.3328C104.169 76.4958 107.935 84.2828 117.351 89.9067C122.566 93.0215 127.926 92.0698 129.954 91.2045C131.692 90.4835 135.69 87.8302 137.776 82.9849C140.384 76.9284 141.253 67.4109 140.819 60.9218C140.384 54.4326 138.646 48.3761 133.431 40.5891C129.259 34.3595 119.524 35.3977 116.482 36.263C112.462 37.4063 109.007 40.416 105.183 44.9152ZM107.79 54.4326C108.659 50.1065 110.687 48.2319 112.136 47.0783C114.309 45.3478 115.613 44.4826 117.351 43.6174C118.753 42.9198 125.608 41.4543 129.085 44.9152C132.127 48.376 132.834 54.9485 133.431 57.0283C134.3 60.0566 134.3 67.8436 133.431 72.6023C132.735 76.4093 132.561 81.6871 126.477 83.8502C123.001 84.7154 111.702 80.8219 109.094 72.1697C106.052 66.5458 106.921 60.4892 107.79 54.4326Z" fill="#D4DCCD" stroke="#D4DCCD"/>
<path d="M16.1338 9.59163C43.6496 11.7082 66.4031 15.7651 74.3404 17.5289L80.5138 35.6082C82.1307 41.7816 85.8935 58.0089 88.0101 73.5307C90.6559 92.9329 88.3853 111.043 87.5 116C85 130 81 139.234 63.3164 147.612C58.3189 149.082 47.0009 151.581 33.7722 145.407C17.316 137.728 18.8964 135.626 15.3688 132.98C13.8721 131.857 10.6704 129.148 11.1114 126.062C11.4232 123.879 17.4567 122.918 19.2205 122.477C23.8836 122.477 25.3939 121.154 26.2758 120.272C26.9814 119.567 25.8349 115.422 24.953 114.54C24.659 114.099 22.3072 113.658 19.6615 114.099C12.6061 115.863 9.96035 116.304 6.43268 118.068C2.905 120.272 1.28815 122.33 1.14116 123.8C0.553215 125.123 1.49393 130.062 9.96035 139.234C20.5434 150.699 29 154 32.8902 155.549C38.2962 157.702 44.5 159.5 54.4972 158.636C63.2913 157.876 71 155.388 80 148.5C93 136.888 95.173 125.789 96 120C96.8819 113.827 97.559 106.878 98 98.5C98.441 87.917 98.1522 77.4993 92.8607 50.1599C88.6275 28.2883 85.5114 19.2927 84.4825 17.5289C107.853 18.8518 109.617 20.1746 113.586 20.6156C125.933 23.0849 133.429 23.4083 135.634 23.2613C137.104 22.9674 139.867 21.7621 139.161 19.2927C138.28 16.206 135.634 15.3241 134.752 15.3241C103.003 10.4735 106.507 11.1773 96.8293 10.4735C72.5766 8.70969 67.2851 7.38679 55.8201 6.06393C19.2205 -0.55046 17.0157 1.2134 14.8109 1.2134C12.6061 1.2134 11.2832 2.09532 9.96035 2.97724C6.43268 5.79938 8.49049 7.6808 9.96035 8.26875C10.6953 8.56272 12.9589 9.23886 16.1338 9.59163Z" fill="#D4DCCD"/>
<path fill-rule="evenodd" clip-rule="evenodd" d="M278.946 40.8997L278.505 47.5141L277.623 59.861L276.741 66.9163H274.095C272.919 66.9163 270.479 67.0045 270.126 67.3573C269.685 67.7982 267.04 67.7982 268.803 70.8849C270.215 73.3543 272.037 73.6777 272.772 73.5307H276.741L275.418 83.6728C275.271 84.4077 275.153 86.2303 275.859 87.6414C276.564 89.0525 277.182 89.2582 277.623 89.4052C278.505 89.6992 280.798 90.3754 281.15 88.9643C281.856 87.5532 282.326 85.1426 282.473 84.1137C282.62 82.7908 282.914 80.0569 282.914 79.7041C282.914 79.3514 283.208 76.0295 283.355 74.4126H288.647L289.088 78.8222C289.088 79.1162 289.44 80.3215 290.851 82.7909C292.615 85.8776 293.497 87.6414 293.938 88.0824C294.291 88.4351 295.555 89.9932 296.143 90.7281C296.584 91.3161 297.554 92.492 297.907 92.492C298.348 92.492 298.789 93.3739 300.553 92.492C301.964 91.7864 302.316 90.7281 302.316 90.2872C302.463 89.6992 302.493 87.9942 301.434 85.8776C300.376 83.761 298.789 81.321 298.348 80.1451L297.466 76.6174L297.025 73.9717L303.639 73.5307C305.403 73.5307 306.814 73.0015 307.167 72.6488C307.608 72.2078 308.49 71.3259 308.49 70.003C308.49 68.6802 309.372 70.003 308.49 67.3573C306.726 65.5934 307.167 65.1525 304.962 65.1525H300.993L297.025 65.5934H295.261H293.938C293.203 60.5959 290.234 48.3078 289.529 44.4274C288.823 40.5469 287.03 33.1094 286.001 29.8757C285.56 28.5529 285.119 26.3481 284.237 25.9071C283.448 25.5127 282.473 25.0252 281.15 25.9071C279.905 26.7373 279.533 28.8468 279.386 29.4348L278.946 40.8997ZM283.796 63.8296L284.678 56.7743L287.324 66.0344H285.56L283.355 66.4754L283.796 63.8296Z" fill="#D4DCCD"/>
<path d="M304.962 65.1525C307.167 65.1525 306.726 65.5934 308.49 67.3573C309.372 70.003 308.49 68.6802 308.49 70.003C308.49 71.3259 307.608 72.2078 307.167 72.6488C306.814 73.0015 305.403 73.5307 303.639 73.5307L297.025 73.9717L297.466 76.6174L298.348 80.1451C298.789 81.321 300.376 83.761 301.434 85.8776C302.493 87.9942 302.463 89.6992 302.316 90.2872C302.316 90.7281 301.964 91.7864 300.553 92.492C298.789 93.3739 298.348 92.492 297.907 92.492C297.554 92.492 296.584 91.3161 296.143 90.7281C295.555 89.9932 294.291 88.4351 293.938 88.0824C293.497 87.6414 292.615 85.8776 290.851 82.7909C289.44 80.3215 289.088 79.1162 289.088 78.8222L288.647 74.4126H283.355C283.208 76.0295 282.914 79.3514 282.914 79.7041C282.914 80.0569 282.62 82.7908 282.473 84.1137C282.326 85.1426 281.856 87.5532 281.15 88.9643C280.798 90.3754 278.505 89.6992 277.623 89.4052C277.182 89.2582 276.564 89.0525 275.859 87.6414C275.153 86.2303 275.271 84.4077 275.418 83.6728L276.741 73.5307H272.772C272.037 73.6777 270.215 73.3543 268.803 70.8849C267.04 67.7982 269.685 67.7982 270.126 67.3573C270.479 67.0045 272.919 66.9163 274.095 66.9163H276.741L277.623 59.861L278.505 47.5141L278.946 40.8997L279.386 29.4348C279.533 28.8468 279.905 26.7373 281.15 25.9071C282.473 25.0252 283.448 25.5127 284.237 25.9071C285.119 26.3481 285.56 28.5529 286.001 29.8757C287.03 33.1094 288.823 40.5469 289.529 44.4274C290.234 48.3078 293.203 60.5959 293.938 65.5934H295.261H297.025L300.993 65.1525M304.962 65.1525C301.768 65.1525 301.287 65.1525 300.993 65.1525M304.962 65.1525H300.993M74.3404 17.5289C66.4031 15.7651 43.6496 11.7082 16.1338 9.59163C12.9589 9.23886 10.6953 8.56272 9.96035 8.26875C8.49049 7.6808 6.43268 5.79938 9.96035 2.97724C11.2832 2.09532 12.6061 1.2134 14.8109 1.2134C17.0157 1.2134 19.2205 -0.55046 55.8201 6.06393C67.2851 7.38679 72.5766 8.70969 96.8293 10.4735C106.507 11.1773 103.003 10.4735 134.752 15.3241C135.634 15.3241 138.28 16.206 139.161 19.2927C139.867 21.7621 137.104 22.9674 135.634 23.2613C133.429 23.4083 125.933 23.0849 113.586 20.6156C109.617 20.1746 107.853 18.8518 84.4825 17.5289C85.5114 19.2927 88.6275 28.2883 92.8607 50.1599C98.1522 77.4993 98.441 87.917 98 98.5C97.559 106.878 96.8819 113.827 96 120C95.173 125.789 93 136.888 80 148.5C71 155.388 63.2913 157.876 54.4972 158.636C44.5 159.5 38.2962 157.702 32.8902 155.549C29 154 20.5434 150.699 9.96035 139.234C1.49393 130.062 0.553215 125.123 1.14116 123.8C1.28815 122.33 2.905 120.272 6.43268 118.068C9.96035 116.304 12.6061 115.863 19.6615 114.099C22.3072 113.658 24.659 114.099 24.953 114.54C25.8349 115.422 26.9814 119.567 26.2758 120.272C25.3939 121.154 23.8836 122.477 19.2205 122.477C17.4567 122.918 11.4232 123.879 11.1114 126.062C10.6704 129.148 13.8721 131.857 15.3688 132.98C18.8964 135.626 17.316 137.728 33.7722 145.407C47.0009 151.581 58.3189 149.082 63.3164 147.612C81 139.234 85 130 87.5 116C88.3853 111.043 90.6559 92.9329 88.0101 73.5307C85.8935 58.0089 82.1307 41.7816 80.5138 35.6082L74.3404 17.5289ZM284.678 56.7743L283.796 63.8296L283.355 66.4754L285.56 66.0344H287.324L284.678 56.7743Z" stroke="#D4DCCD"/>
</svg>
